<?xml version="1.0" encoding="UTF-8" standalone="no"?>
<svg
   xmlns:dc="http://purl.org/dc/elements/1.1/"
   xmlns:cc="http://creativecommons.org/ns#"
   xmlns:rdf="http://www.w3.org/1999/02/22-rdf-syntax-ns#"
   xmlns:svg="http://www.w3.org/2000/svg"
   xmlns="http://www.w3.org/2000/svg"
   xmlns:sodipodi="http://sodipodi.sourceforge.net/DTD/sodipodi-0.dtd"
   xmlns:inkscape="http://www.inkscape.org/namespaces/inkscape"
   inkscape:version="1.0 (6e3e5246a0, 2020-05-07)"
   sodipodi:docname="fast-food.svg"
   id="svg8"
   version="1.1"
   viewBox="0 0 210.07796 210.07797"
   height="210.07794mm"
   width="210.07794mm">
  <defs
     id="defs2">
    <rect
       x="850.79034"
       y="1221.2079"
       width="1309.183"
       height="385.30655"
       id="rect2143" />
    <inkscape:path-effect
       only_selected="false"
       apply_with_weight="true"
       apply_no_weight="true"
       helper_size="0"
       steps="2"
       weight="33.333333"
       lpeversion="1"
       is_visible="true"
       id="path-effect1163"
       effect="bspline" />
    <rect
       x="1.4310606"
       y="529.75781"
       width="515.5835"
       height="141.35973"
       id="rect893" />
  </defs>
  <sodipodi:namedview
     inkscape:pagecheckerboard="true"
     inkscape:window-maximized="1"
     inkscape:window-y="22"
     inkscape:window-x="0"
     inkscape:window-height="709"
     inkscape:window-width="1366"
     showgrid="false"
     inkscape:document-rotation="0"
     inkscape:current-layer="g4110"
     inkscape:document-units="mm"
     inkscape:cy="443.28614"
     inkscape:cx="-49.86738"
     inkscape:zoom="0.20627917"
     inkscape:pageshadow="2"
     inkscape:pageopacity="0.0"
     borderopacity="1.0"
     bordercolor="#666666"
     pagecolor="#ffffff"
     id="base" />
  <metadata
     id="metadata5">
    <rdf:RDF>
      <cc:Work
         rdf:about="">
        <dc:format>image/svg+xml</dc:format>
        <dc:type
           rdf:resource="http://purl.org/dc/dcmitype/StillImage" />
        <dc:title></dc:title>
      </cc:Work>
    </rdf:RDF>
  </metadata>
  <g
     transform="translate(-261.581,-157.56473)"
     id="layer1"
     inkscape:groupmode="layer"
     inkscape:label="Layer 1">
    <g
       transform="matrix(0.26458333,0,0,0.26458333,37.501478,58.495674)"
       id="g4110">
      <g
         id="g4034"
         transform="translate(0,4.9078891)" />
      <g
         id="g4036"
         transform="translate(0,4.9078891)" />
      <g
         id="g4038"
         transform="translate(0,4.9078891)" />
      <g
         id="g4040"
         transform="translate(0,4.9078891)" />
      <g
         id="g4042"
         transform="translate(0,4.9078891)" />
      <g
         id="g4044"
         transform="translate(0,4.9078891)" />
      <g
         id="g4046"
         transform="translate(0,4.9078891)" />
      <g
         id="g4048"
         transform="translate(0,4.9078891)" />
      <g
         id="g4050"
         transform="translate(0,4.9078891)" />
      <g
         id="g4052"
         transform="translate(0,4.9078891)" />
      <g
         id="g4054"
         transform="translate(0,4.9078891)" />
      <g
         id="g4056"
         transform="translate(0,4.9078891)" />
      <g
         id="g4058"
         transform="translate(0,4.9078891)" />
      <g
         id="g4060"
         transform="translate(0,4.9078891)" />
      <g
         id="g4062"
         transform="translate(0,4.9078891)" />
      <g
         transform="matrix(0.90046929,0,0,0.90954678,1008.177,529.00813)"
         id="g1459">
        <path
           id="path3986"
           d="m 494.921,278.06419 v 42.667 h -435.2 v -38.4 c -0.141,-4.539 3.399,-8.345 7.936,-8.533 4.52,-0.197 8.03,-4.012 7.851,-8.533 v -3.328 c -0.082,-8.413 3.887,-16.352 10.667,-21.333 l 9.557,-6.912 c 2.27,-1.681 3.601,-4.344 3.584,-7.168 -0.074,-7.451 3.872,-14.365 10.325,-18.091 l 15.957,-8.619 c 3.349,-1.851 5.413,-5.39 5.376,-9.216 -0.041,-5.018 1.819,2.135 5.205,-1.568 3.207,-3.553 7.758,-5.596 12.544,-5.632 8.696,-0.188 16.504,-5.371 20.053,-13.312 1.125,-2.435 2.622,-4.681 4.437,-6.656 l 7.083,-7.68 c 0.185,-0.243 0.418,-0.446 0.683,-0.597 1.792,-1.711 4.178,-2.659 6.656,-2.645 2.045,-0.01 4.043,0.617 5.717,1.792 1.203,0.89 2.524,1.608 3.925,2.133 2.286,1.005 4.756,1.528 7.253,1.536 6.868,-0.103 13.195,-3.75 16.725,-9.643 1.852,-3.175 4.793,-5.57 8.277,-6.741 4.912,1.094 9.537,3.217 13.568,6.229 2.552,1.915 5.408,3.386 8.448,4.352 5.395,1.835 11.245,1.835 16.64,0 h 0.085 c 6.125,1.993 12.746,1.843 18.773,-0.427 h 41.045 l 0.597,0.341 c 5.107,3.719 11.262,5.721 17.579,5.717 h 12.459 c 4.072,0.018 8.1,0.829 11.861,2.389 l 17.125,24.064 0.256,1.024 3.195,6.144 c 1.747,11.47 15.443,20.052 27.04,20.395 1.932,0.002 3.855,-0.256 5.717,-0.768 2.099,-0.507 1.74679,1.65889 3.55579,2.83789 1.809,1.179 9.84221,19.51911 9.84221,19.51911 1.047,5.53 24.6259,11.52864 30.2529,11.67564 l -32.62255,-4.79322 c 3.271,0.124 30.5268,-4.23611 32.7518,-1.83611 2.225,2.401 3.62085,14.21069 3.49585,17.48169 v 8.533 c -0.125,3.271 1.054,6.457 3.279,8.857 2.225,2.401 5.312,-8.181 8.583,-8.057 3.271,0.124 6.358,1.542 8.583,3.942 2.226,2.402 3.406,5.588 3.28,8.859 z"
           style="fill:#cccccc"
           sodipodi:nodetypes="ccccccccccccccccccccccccccccccccccccccccscccccccscc" />
        <path
           id="path3988"
           d="m 460.788,276.895 v 42.667 l -435.2,1.60876 V 281.162 c -0.141,-4.539 3.399,-8.345 7.936,-8.533 4.52,-0.197 8.03,-4.012 7.851,-8.533 v -3.328 c -0.082,-8.413 3.887,-16.352 10.667,-21.333 l 9.557,-6.912 c 2.27,-1.681 3.601,-4.344 3.584,-7.168 -0.074,-7.451 3.872,7.635 10.325,3.909 l 15.957,-8.619 c 3.349,-1.851 5.413,-5.39 5.376,-9.216 -0.041,-5.018 1.819,-9.865 5.205,-13.568 3.207,-3.553 7.758,-5.596 12.544,-5.632 8.696,-0.188 16.504,-5.371 20.053,-13.312 1.125,-2.435 2.622,-4.681 4.437,-6.656 l 7.083,-7.68 c 1.89,-2.053 4.548,-3.228 7.339,-3.243 2.045,-0.01 4.043,0.617 5.717,1.792 1.918,1.404 4.092,2.419 6.4,2.987 1.547,0.477 3.16,0.707 4.779,0.683 3.615,0.008 7.15,-1.062 10.155,-3.072 2.846,2.007 6.245,3.08 9.728,3.072 6.677,-0.148 12.779,-3.815 16.043,-9.643 1.582,-2.749 3.963,-4.951 6.827,-6.315 4.367,1.229 8.493,3.192 12.203,5.803 7.529,5.567 17.272,7.186 26.197,4.352 0.466,-0.103 0.923,-0.246 1.365,-0.427 h 41.045 l 0.597,0.341 c 5.107,3.719 11.262,5.721 17.579,5.717 h 12.459 c 4.072,0.018 8.1,0.829 11.861,2.389 l 23.125,24.064 0.256,1.024 1.195,6.144 c 1.747,11.47 11.443,20.052 23.04,20.395 1.932,0.002 3.855,-0.256 5.717,-0.768 0.144,-0.02 0.286,-0.049 0.427,-0.085 h 0.085 c 1.688,-0.362 3.45,-0.089 4.949,0.768 2.098,1.175 3.59,3.196 4.096,5.547 l 3.84,-5.872 c 1.046,5.53 5.808,9.582 11.435,9.728 h 10.581 c 3.271,0.124 6.358,1.542 8.583,3.942 2.225,2.401 3.404,5.587 3.279,8.858 v 8.533 c -0.125,3.271 1.054,6.457 3.279,8.857 2.225,2.401 5.312,3.819 8.583,3.943 3.271,0.124 6.358,1.542 8.583,3.942 2.224,2.401 3.403,5.587 3.278,8.858 z"
           style="fill:#ffffff"
           sodipodi:nodetypes="ccccccccccccccccccccccccccccccccccccccccccccccccccscc" />
        <path
           id="path3990"
           d="m 469.321,278.20257 v 42.667 h -8.533 l -200.533,0.085 -209.067,0.085 v -38.4 c -0.232,-4.444 3.154,-8.248 7.595,-8.533 4.441,-0.285 7.827,-4.089 7.595,-8.533 v -3.328 c -0.128,-8.325 3.665,-16.226 10.24,-21.333 l 9.131,-6.912 c 2.194,-1.726 3.456,-4.377 3.413,-7.168 -0.095,-7.369 3.699,5.757 9.984,1.909 l 15.36,-8.619 c 3.258,-1.91 5.219,-5.441 5.12,-9.216 -0.051,-4.973 1.708,-9.795 4.949,-13.568 3.048,-3.523 7.459,-5.573 12.117,-5.632 8.47,-0.248 15.998,-5.467 19.2,-13.312 1.129,-2.393 2.563,-4.631 4.267,-6.656 l 5.461,-6.229 1.365,-1.536 c 1.8,-2.029 4.371,-3.206 7.083,-3.243 1.964,0.005 3.876,0.632 5.461,1.792 0.322,0.231 0.665,0.431 1.024,0.597 0.171,0.085 0.256,0.171 0.427,0.256 2.747,1.852 5.988,2.834 9.301,2.816 2.416,0 4.804,-0.524 6.997,-1.536 3.798,-1.676 6.965,-4.515 9.045,-8.107 1.582,-2.749 3.963,-4.951 6.827,-6.315 1.814,-0.855 3.797,-1.292 5.803,-1.28 h 3.243 c 2.472,-0.016 4.936,0.27 7.339,0.853 4.912,1.094 9.537,3.217 13.568,6.229 2.552,1.915 5.408,3.386 8.448,4.352 5.395,1.835 11.245,1.835 16.64,0 h 0.085 c 0.439,-0.104 0.867,-0.246 1.28,-0.427 h 39.509 l 0.512,0.341 c 4.859,3.695 10.792,5.703 16.896,5.717 h 11.947 c 3.934,0.018 7.823,0.831 11.435,2.389 l 22.187,23.979 0.256,1.024 1.109,6.144 c 1.362,9.231 7.898,16.863 16.811,19.627 h 0.085 c 1.6,0.511 3.27,0.77 4.949,0.768 h 0.427 c 1.847,-0.01 3.684,-0.268 5.461,-0.768 2.056,-0.477 4.218,-0.077 5.966,1.105 1.749,1.182 2.926,3.038 3.25,5.124 l 3.584,-3.872 c 0.944,5.451 5.566,9.504 11.093,9.728 h 10.069 c 6.684,0.393 11.794,6.114 11.435,12.8 v 8.533 c -0.36,6.686 4.75,12.407 11.435,12.8 6.668,0.406 11.747,6.136 11.349,12.803 z"
           style="fill:#ffffff;fill-opacity:1"
           sodipodi:nodetypes="ccccccscccccccccccccccccccccccccccccccccccccccccccccccccccc" />
        <path
           id="path4022"
           d="M 21.816585,323.67161 C 16.002046,322.64511 17.055,311.474 17.055,306.762 v -15.6 c 0.009,-9.422 7.645,-20.386 17.067,-20.396 v 0 c -0.005,-11.431 5.714,-25.22401 15.233,-31.55201 L 56.520041,235.429 C 56.555041,224.542 65.834,214.593 75.543,209.667 l 17.313,-8.654 c 0.614,-0.288 1.004,-0.906 1,-1.584 0.02,-15.309 12.425,-19.714 27.733,-19.733 2.9515,-0.0195 5.77425,-0.86075 8.19413,-2.35462 2.41987,-1.49388 4.43687,-3.64038 5.77687,-6.27038 0.826,-1.629 1.7755,-3.189 2.83913,-4.667 1.06362,-1.478 2.24137,-2.874 3.52387,-4.175 l 3.8415,-3.8415 3.8415,-3.8415 c 3.3435,-3.1785 7.54575,-5.03675 11.89637,-5.49937 4.35063,-0.46263 8.84963,0.47037 12.78663,2.87437 1.451,0.9895 3.06925,1.6695 4.756,2.0195 1.68675,0.35 3.442,0.37 5.167,0.0395 1.725,-0.3305 3.3485,-0.99775 4.7865,-1.94625 1.438,-0.9485 2.6905,-2.17825 3.6735,-3.63375 2.3585,-3.562 5.534,-6.41125 9.18788,-8.36675 3.65387,-1.9555 7.78612,-3.01725 12.05812,-3.00425 h 1.8355 1.8355 c 5.0085,0.004 9.96125,0.74425 14.70575,2.17488 4.7445,1.43062 9.28075,3.55162 13.45625,6.31712 3.269,2.2 6.95725,3.57575 10.76175,4.0865 3.8045,0.51075 7.72525,0.1565 11.45925,-1.1035 2.2275,-0.7675 4.55525,-0.5595 6.518,0.39738 1.96275,0.95687 3.5605,2.66262 4.328,4.89062 0.7675,2.2275 0.5595,4.55525 -0.39725,6.518 -0.95675,1.96275 -2.66225,3.5605 -4.88975,4.328 -6.2475,2.1235 -12.8115,2.732 -19.18475,1.89238 C 247.973,165.69075 241.7905,163.403 236.306,159.734 c -2.7765,-1.835 -5.79175,-3.2425 -8.94487,-4.19225 C 224.208,154.592 220.917,154.1 217.589,154.096 h -1.8355 -1.8355 c -1.4155,-0.006 -2.78475,0.34525 -3.99575,0.99238 -1.211,0.64712 -2.26375,1.59062 -3.04625,2.77062 -2.214,3.337 -5.04675,6.16475 -8.30762,8.35513 -3.26088,2.19037 -6.94988,3.74337 -10.87638,4.53087 -3.9265,0.7875 -7.929,0.7775 -11.78237,0.0143 -3.85338,-0.76325 -7.55763,-2.27975 -10.88763,-4.50525 -0.545,-0.2745 -1.14525,-0.37675 -1.72788,-0.3145 -0.58262,0.0622 -1.14762,0.289 -1.62212,0.6725 l -3.8415,3.8415 -3.8415,3.8415 c -0.651,0.6725 -1.2495,1.39225 -1.79062,2.15275 -0.54113,0.7605 -1.02488,1.56175 -1.44638,2.39725 -2.809,5.4725 -7.02425,9.9355 -12.07487,13.0385 -5.05063,3.103 -10.93663,4.846 -17.08713,4.8785 -5.884,0.017 -10.649,-3.217 -10.667,2.667 -0.015,7.166 -4.085,13.706 -10.508,16.883 l -17.162,8.583 c -3.923,2.023 -6.408,6.046 -6.462,10.459 -0.009,5.709 -2.852,11.04 -7.588,14.229 l -10.367,6.941 c -4.774,3.166 -7.645,8.513 -7.646,14.242 v 3.329 c -0.009,9.422 -7.645,17.057 -17.067,17.067 v 15.6 c -0.002,4.712 -5.401579,18.12853 -12.306415,16.90956 z"
           sodipodi:nodetypes="ascccccccccscscccscssscscccscscscscscscccscssscscccscsccccccccccca" />
        <path
           id="path4024"
           d="m 498.06896,324.65203 c -2.263,10e-4 -4.434,-0.898 -6.035,-2.499 -1.6,-1.6 -2.31787,-3.77812 -2.499,-6.035 L 486.387,276.894 c -0.003,-2.355 -1.912,-4.264 -4.267,-4.267 -11.777,-0.012 -21.321,-9.556 -21.333,-21.333 v -8.533 c -0.003,-2.355 -1.912,-4.264 -4.267,-4.267 h -11.35 c -9.837,0.035 -26.402,-2.709 -28.675,-12.279 l -4.067,-16.009 c -2.688,0.633 -5.439,0.959 -8.2,0.971 -16.176,-0.003 -30.104,-11.418 -33.283,-27.279 l -1.262,-6.05 c -1.212,-4.622 -4.01245,-10.72651 -0.23292,-12.708 5.85369,-3.06892 11.84564,6.44114 16.22092,11.367 2.10286,2.36749 2.77164,5.69653 4.47855,8.35611 1.49937,2.33621 3.11738,5.41929 5.03445,6.63389 3.908,2.476 8.662,3.234 13.146,2.098 4.392,-1.086 9.036,-0.39 12.917,1.938 3.91,2.332 6.709,6.149 7.758,10.579 l 4.067,16.021 c 0.422,1.926 2.129,3.298 4.1,3.296 h 11.35 c 11.777,0.012 29.321,5.556 29.333,17.333 v 8.533 c 0.003,2.355 1.911,4.264 4.267,4.267 11.777,0.012 21.321,9.556 21.333,21.333 l 3.14796,39.22403 c 10e-4,2.263 -0.898,4.434 -2.499,6.035 -1.601,1.599 -3.771,2.498 -6.035,2.498 z"
           sodipodi:nodetypes="csscccccccccccaaasccccccccccccc" />
      </g>
      <g
         transform="matrix(0.7086602,0,0,0.70922144,715.55044,548.69835)"
         id="g1480">
        <g
           id="038---Frozen-Chicken"
           fill-rule="nonzero"
           transform="matrix(21.718143,-4.7201678,4.7201678,21.718143,529.00158,-1207.4849)"
           style="fill:none">
          <path
             id="path4204"
             d="m -8.6854107,65.270958 -0.083709,-0.0074 c 0,0 0.062472,0.01737 0.1351489,0.04551 z"
             fill="#783e22"
             style="stroke-width:0.23444" />
          <path
             id="path4206"
             d="M 0.62431509,65.157717 C -0.68834809,64.457587 -3.0433371,65.019834 -4.0574062,66.10838 l -0.013238,0.02482 -0.1675579,-0.08936 c -0.5407913,-0.309604 -1.1769005,-0.408498 -1.7861612,-0.277689 -0.099785,0.324109 -0.2608181,0.626067 -0.4743688,0.889505 0.2900504,-0.26823 0.6443062,-0.457221 1.0286215,-0.548756 0.6274328,-0.150895 1.2888285,-0.05582 1.8483561,0.265689 l 0.1675579,0.08936 0.013238,-0.02482 c 0.9239704,-0.990887 2.3618366,-1.312217 3.61972146,-0.808923 -0.09312919,-0.0651 0.54560592,-0.416635 0.44555223,-0.470489 z"
             fill="#783e22"
             sodipodi:nodetypes="cccccccccccc"
             style="stroke-width:0.23444" />
          <path
             id="path4202"
             d="m 0.53641977,68.15636 c -0.0888106,0.02703 -0.17968937,0.05296 -0.27153398,0.07572 -0.0626843,-0.09983 -1.48612749,0.598717 -1.56022209,0.507035 -1.3243006,0.892866 -2.4358545,0.18214 -3.3506014,-0.478191 -0.1349511,-0.09742 0.088372,-0.761334 -0.2225856,-0.44696 l -0.013238,0.02482 -0.1675579,-0.08936 c -0.559528,-0.321512 -1.2209233,-0.416584 -1.8483563,-0.26569 -0.3843151,0.09153 -0.7385708,0.280526 -1.0286213,0.548757 0.2195218,-0.268897 0.3844087,-0.578083 0.4854006,-0.910191 0.073392,-0.243407 0.076206,-0.502644 0.00811,-0.747587 -0.084388,-0.247259 -0.2390473,-0.464545 -0.4450395,-0.62525 -0.2688972,-0.219522 -0.5780825,-0.384409 -0.9101911,-0.485401 0.3903054,0.06114 0.7897803,0.02071 1.1599202,-0.117392 0.6051004,-0.224264 1.1013665,-0.671705 1.3868791,-1.25043 0.7829836,-1.498092 2.5635794,-2.883957 4.4171513,-3.455079 2.75836221,-0.837858 4.839808,0.415642 5.488579,2.547092 0.6487704,2.131449 -0.3707005,4.327073 -3.12809739,5.168103 z"
             fill="#a0522d"
             sodipodi:nodetypes="cccaccccccccccccsc"
             style="fill:#cc8033;fill-opacity:1;stroke-width:0.23444" />
          <path
             id="path4208"
             d="M 3.5729906,63.174827 C 3.2602675,62.058071 2.4593251,61.142618 1.394009,60.684317 c 0.7555743,0.515922 1.3068773,1.279892 1.5583967,2.159555 0.6478053,2.128277 -0.5861858,4.831587 -3.33227406,5.681304 0.0417867,0.0462 -0.28523062,0.108916 -0.24661583,0.156078 0.0742831,0.08929 0.0842951,-0.07949 0.14762108,0.01787 0.0918444,-0.02276 0.18272339,-0.04869 0.27153376,-0.07572 2.76056875,-0.84199 4.42909045,-3.317128 3.78031995,-5.448577 z"
             fill="#783e22"
             sodipodi:nodetypes="cccccccc"
             style="stroke-width:0.23444" />
          <g
             fill="#000000"
             id="g4238"
             transform="matrix(0.23443947,0,0,0.23443947,-10.548016,45.872263)"
             style="stroke:none;stroke-width:3.62687;stroke-miterlimit:4;stroke-dasharray:none;stroke-opacity:1">
            <path
               id="path4216"
               d="M 60.559721,69.256114 C 55.699246,62.002927 48.532425,57.640869 36.964882,61.161799 28.847308,63.632628 21.03102,69.788741 17.511215,76.388845 c -1.101849,2.241733 -3.020487,3.976287 -5.361622,4.847217 -1.38968,0.519717 -2.8873349,0.683359 -4.3564573,0.476011 -0.4613101,-0.131955 -0.951325,0.08234 -1.167632,0.510623 -0.2598844,0.487318 -0.075513,1.093045 0.4118047,1.352929 l 0.211768,0.112935 c 0.6416502,0.196382 -0.2401869,0.135553 0.3443811,0.46504 l -7.04476799,2.219106 c -0.91042199,-2.134114 -3.74009181,-2.944797 -5.95903621,-2.266859 -2.3983766,0.730234 -3.9138886,4.016473 -3.1840502,6.41497 0.3848785,1.314051 1.4249878,2.008419 2.6892536,2.534247 -0.087137,0.142248 -0.3287447,1.039746 -0.3983222,1.191358 -0.9348694,1.759975 -0.4496541,3.173683 0.9573764,4.58498 1.4070307,1.411298 3.7819727,2.571708 5.54477153,1.642178 C 1.9614809,99.544049 3.8252218,96.986464 3.4554633,95.028206 l 7.9170507,-2.443507 c -0.309593,0.594339 -0.590289,0.784659 -1.000783,1.314357 -0.04773,0.06867 -0.08721,0.142702 -0.117641,0.220592 -0.193188,0.36141 -0.146317,0.804111 0.118269,1.117055 0.08203,0.0965 0.181636,0.176549 0.293536,0.235874 0.24064,0.127199 0.522754,0.150734 0.781179,0.06527 0.176758,-0.05623 0.334394,-0.160512 0.455286,-0.30119 1.099625,-1.003144 2.433522,-1.714135 3.87935,-2.067762 2.293536,-0.549493 4.708861,-0.240955 6.790614,0.867447 2.033973,3.175509 7.789979,5.328236 12.277406,5.569924 5.903144,0.317936 11.863214,-2.366215 16.8443,-5.550078 3.441237,-2.199605 6.35317,-5.397944 8.366185,-8.951554 1.510676,-2.666825 2.538953,-5.773922 2.533926,-8.838896 -0.004,-2.432958 -0.966811,-5.416453 -2.03442,-7.009624 z M 1.2134763,93.242268 c -0.2744341,0.0839 -0.4995988,0.281651 -0.6182192,0.542959 -0.120716,0.260424 -0.1237097,0.560163 -0.00821,0.822942 l 0.046474,0.104116 c 0.033532,0.08588 0.080593,0.167645 0.1053014,0.24882 0.4008913,1.344124 -0.35448703,2.760559 -1.69402371,3.176521 -1.33996669,0.362014 -2.73059099,-0.379599 -3.17652069,-1.694024 -0.4008914,-1.344124 0.354487,-2.760559 1.6940238,-3.17652 0.5256511,-0.161708 0.82207,-0.717533 0.6634927,-1.244138 -0.1617078,-0.525651 -0.7175329,-0.82207 -1.2441373,-0.663492 -1.3447071,0.406761 -2.7651086,-0.350733 -3.1765206,-1.694024 -0.4008914,-1.344124 0.354487,-2.760559 1.6940238,-3.176521 1.3447071,-0.406761 2.7651086,0.350732 3.1765206,1.694024 0.023952,0.08696 0.041065,0.175662 0.051184,0.265293 l 0.019415,0.112352 c 0.041917,0.282357 0.2098666,0.53037 0.45649049,0.674104 0.2492986,0.132194 0.54284449,0.152908 0.80823698,0.05703 L 11.159142,85.898444 c 0.515877,0.493828 0.900961,1.108104 1.120642,1.787614 0.191289,0.685627 0.218314,1.406683 0.07888,2.104704 z M 23.902865,92.43395 c -2.614788,-1.495738 -5.705421,-1.926265 -8.629447,-1.202098 -0.459489,0.107563 -0.911434,0.245126 -1.352929,0.411805 0.571632,-1.440503 0.666624,-3.026273 0.271043,-4.524714 -0.504164,-1.464864 -1.469218,-2.727034 -2.750695,-3.597566 0.457594,-0.114503 0.909141,-0.251944 1.352929,-0.411804 2.830013,-1.030435 5.155772,-3.109084 6.496299,-5.806075 3.240993,-6.204801 10.562002,-11.899723 18.246638,-14.238774 10.444025,-3.156779 19.350617,0.947075 22.171479,10.214639 2.820862,9.267564 -6.304696,16.656037 -13.244585,21.33761 -3.824787,2.58016 -9.075679,3.052847 -13.637693,2.364183 -3.300893,-0.49829 -5.419208,-1.395754 -8.923039,-4.547206 z"
               sodipodi:nodetypes="ssccccscccccccssccccccccccaaaascccccccccccccccccccccccccccccsaac"
               style="stroke:none;stroke-width:3.62687;stroke-miterlimit:4;stroke-dasharray:none;stroke-opacity:1" />
            <path
               id="path4218"
               d="m 52.115121,69.241352 c 0.347175,-0.104353 0.612306,-0.385995 0.695522,-0.738833 0.08321,-0.352841 -0.02813,-0.72327 -0.292088,-0.971756 -0.263959,-0.248486 -0.640434,-0.337276 -0.987609,-0.232923 -0.261242,0.07429 -0.481027,0.251649 -0.608832,0.4913 -0.127805,0.23965 -0.152633,0.520977 -0.06878,0.779308 0.07547,0.25831 0.251858,0.475302 0.489311,0.601935 0.237453,0.126632 0.515922,0.152216 0.772473,0.07097 z"
               style="stroke:none;stroke-width:3.62687;stroke-miterlimit:4;stroke-dasharray:none;stroke-opacity:1" />
            <path
               id="path4220"
               d="m 48.329767,67.22264 c 0.523729,-0.165859 0.815593,-0.723148 0.653662,-1.248102 -0.161935,-0.524955 -0.717024,-0.820982 -1.243177,-0.66298 -0.526156,0.158 -0.826329,0.710858 -0.672269,1.238179 0.07547,0.25831 0.251859,0.475302 0.489311,0.601934 0.237453,0.126633 0.515923,0.152216 0.772473,0.07097 z"
               style="stroke:none;stroke-width:3.62687;stroke-miterlimit:4;stroke-dasharray:none;stroke-opacity:1" />
            <path
               id="path4222"
               d="m 43.836215,66.446891 c 0.520751,-0.169039 0.808751,-0.725412 0.646119,-1.248196 -0.162638,-0.522786 -0.715435,-0.81759 -1.240178,-0.661381 -0.524745,0.156209 -0.826309,0.705349 -0.676549,1.231967 0.07429,0.261242 0.251649,0.481027 0.4913,0.608832 0.239651,0.127805 0.520978,0.152633 0.779308,0.06878 z"
               style="stroke:none;stroke-width:3.62687;stroke-miterlimit:4;stroke-dasharray:none;stroke-opacity:1" />
            <path
               id="path4224"
               d="m 42.224497,68.023997 c -0.258311,0.07547 -0.475302,0.251859 -0.601934,0.489312 -0.126633,0.237453 -0.152217,0.515922 -0.07097,0.772473 0.07547,0.258311 0.251859,0.475301 0.489312,0.601934 0.237453,0.126632 0.515922,0.152217 0.772473,0.07097 0.53425,-0.162615 0.835519,-0.727535 0.672903,-1.261785 -0.162615,-0.53425 -0.727534,-0.835519 -1.261784,-0.672904 z"
               style="stroke:none;stroke-width:3.62687;stroke-miterlimit:4;stroke-dasharray:none;stroke-opacity:1" />
            <path
               id="path4226"
               d="m 44.965248,73.531563 c 0.25831,-0.07547 0.475301,-0.251859 0.601934,-0.489312 0.126632,-0.237452 0.152217,-0.515921 0.07097,-0.772472 -0.07547,-0.258311 -0.251859,-0.475302 -0.489312,-0.601934 -0.237453,-0.126633 -0.515922,-0.152217 -0.772473,-0.07097 -0.345599,0.105193 -0.608826,0.386771 -0.690524,0.738665 -0.0817,0.351894 0.03054,0.720644 0.29444,0.967344 0.263899,0.246701 0.639383,0.33384 0.984965,0.228679 z"
               style="stroke:none;stroke-width:3.62687;stroke-miterlimit:4;stroke-dasharray:none;stroke-opacity:1" />
            <path
               id="path4228"
               d="m 46.68746,68.772101 c -0.52075,0.169038 -0.808751,0.725411 -0.646118,1.248195 0.162637,0.522787 0.715434,0.817591 1.240177,0.661381 0.524745,-0.156208 0.82631,-0.705349 0.676549,-1.231967 -0.07429,-0.261241 -0.251649,-0.481027 -0.491299,-0.608832 -0.239651,-0.127804 -0.520978,-0.152633 -0.779309,-0.06878 z"
               style="stroke:none;stroke-width:3.62687;stroke-miterlimit:4;stroke-dasharray:none;stroke-opacity:1" />
            <path
               id="path4230"
               d="m 50.481638,70.795518 c -0.523729,0.165859 -0.815593,0.723148 -0.653662,1.248102 0.161935,0.524955 0.717025,0.820982 1.243177,0.66298 0.526156,-0.157999 0.826328,-0.710857 0.672269,-1.238178 -0.07547,-0.258311 -0.251859,-0.475302 -0.489311,-0.601935 -0.237453,-0.126632 -0.515923,-0.152216 -0.772473,-0.07097 z"
               style="stroke:none;stroke-width:3.62687;stroke-miterlimit:4;stroke-dasharray:none;stroke-opacity:1" />
            <path
               id="path4232"
               d="m 55.236395,72.526554 c 0.25831,-0.07547 0.475301,-0.251859 0.601934,-0.489312 0.126632,-0.237452 0.152217,-0.515921 0.07097,-0.772473 -0.105194,-0.345598 -0.386771,-0.608825 -0.738665,-0.690524 -0.351894,-0.0817 -0.720644,0.03054 -0.967344,0.29444 -0.246702,0.2639 -0.333841,0.639384 -0.22868,0.984965 0.07547,0.258311 0.251859,0.475302 0.489312,0.601935 0.237453,0.126632 0.515922,0.152216 0.772473,0.07097 z"
               style="stroke:none;stroke-width:3.62687;stroke-miterlimit:4;stroke-dasharray:none;stroke-opacity:1" />
            <path
               id="path4234"
               d="m 48.750602,75.550275 c 0.25831,-0.07547 0.475301,-0.251859 0.601934,-0.489312 0.126632,-0.237453 0.152217,-0.515922 0.07097,-0.772473 -0.162616,-0.53425 -0.727535,-0.835519 -1.261785,-0.672903 -0.53425,0.162615 -0.835519,0.727534 -0.672904,1.261784 0.07547,0.258311 0.251859,0.475303 0.489311,0.601935 0.237453,0.126633 0.515923,0.152216 0.772474,0.07097 z"
               style="stroke:none;stroke-width:3.62687;stroke-miterlimit:4;stroke-dasharray:none;stroke-opacity:1" />
            <path
               id="path4236"
               d="m 39.090282,64.72056 c -0.520751,0.169038 -0.808752,0.725412 -0.646119,1.248196 0.162637,0.522786 0.715435,0.817591 1.240177,0.66138 0.524745,-0.156208 0.82631,-0.705348 0.67655,-1.231966 -0.07429,-0.261242 -0.251649,-0.481027 -0.4913,-0.608832 -0.239651,-0.127805 -0.520978,-0.152633 -0.779308,-0.06878 z"
               style="stroke:none;stroke-width:3.62687;stroke-miterlimit:4;stroke-dasharray:none;stroke-opacity:1" />
          </g>
          <path
             id="path4210"
             d="m -7.461858,67.121753 -2.746778,0.836064 c 0.01816,0.03572 0.034,0.07257 0.04744,0.110324 0.0982,0.321181 -0.0069,0.66989 -0.266143,0.883367 -0.259287,0.213476 -0.621679,0.249629 -0.918031,0.09159 -0.296351,-0.158043 -0.468232,-0.479123 -0.435418,-0.813376 0.03281,-0.334253 0.263855,-0.615776 0.585284,-0.71317 -0.321183,0.0982 -0.669891,-0.0069 -0.883367,-0.266143 -0.213477,-0.259287 -0.24963,-0.621678 -0.09159,-0.91803 0.158044,-0.296352 0.479123,-0.468233 0.813376,-0.435418 0.334253,0.03281 0.615776,0.263854 0.71317,0.585283 0.0099,0.03884 0.01724,0.07827 0.02207,0.118046 l 2.742916,-0.848752 c 0.1965585,0.16124 0.3433266,0.374947 0.4232505,0.616288 0.070841,0.246895 0.069413,0.508924 -0.00411,0.755033 z"
             fill="#ffe0b2"
             style="stroke-width:0.23444" />
          <path
             id="path4212"
             d="m -7.4597895,67.122856 c 0.073392,-0.243407 0.076206,-0.502644 0.00811,-0.747586 -0.07911,-0.245145 -0.227035,-0.462375 -0.4261464,-0.625803 l -0.2791186,0.08496 c 0.033803,0.06335 0.061555,0.129744 0.082887,0.198306 0.070932,0.2484 0.068738,0.511985 -0.00632,0.75917 l -2.7455375,0.828756 c 0.01816,0.03572 0.034,0.07257 0.04744,0.110323 0.131296,0.437736 -0.114937,0.899456 -0.551592,1.034308 -0.09164,0.02761 -0.187475,0.03859 -0.282981,0.03242 0.242592,0.318687 0.678177,0.418654 1.035451,0.237635 0.357275,-0.181019 0.534297,-0.591372 0.42081,-0.975473 -0.01344,-0.03775 -0.02929,-0.0746 -0.04744,-0.110323 l 2.7423647,-0.82779 z"
             fill="#dfc49c"
             style="stroke-width:0.23444" />
        </g>
      </g>
      <g
         transform="translate(235.46695,330.20656)"
         id="g1471">
        <g
           transform="translate(752.44598,81.520111)"
           id="g1380">
          <g
             transform="translate(3,1)"
             id="g1366">
            <polygon
               style="fill:#aa0044"
               points="125,75.8 372.467,75.8 331.251,451.267 166.216,451.267 "
               id="polygon1308" />
            <polygon
               style="fill:#ff2a7f"
               points="125,75.8 346.867,75.8 305.651,451.267 166.216,451.267 "
               id="polygon1310" />
            <path
               style="fill:#2e7d32"
               d="m 324.108,365.933 v 76.8 H 284.94 c -2.237,0.018 -4.379,0.905 -5.973,2.475 L 238.775,485.4 198.583,445.208 c -1.594,-1.57 -3.736,-2.457 -5.973,-2.475 H 51.042 v -76.8 z"
               id="path1312" />
            <path
               style="fill:#3db84a;fill-opacity:1"
               d="m 298.508,365.933 v 76.8 H 259.34 c -2.237,0.018 -4.379,0.905 -5.973,2.475 L 213.175,485.4 172.983,445.208 c -1.594,-1.57 -3.736,-2.457 -5.973,-2.475 H 51.042 v -76.8 z"
               id="path1314" />
            <path
               style="fill:#4e342e"
               d="m 349.623,355.523 c 0.522,7.094 -1.932,14.085 -6.772,19.297 -4.84,5.212 -11.63,8.176 -18.743,8.18 H 52.467 c -13.785,0.295 -25.501,-10.012 -26.965,-23.723 -0.522,-7.098 1.935,-14.093 6.78,-19.306 4.846,-5.213 11.643,-8.174 18.76,-8.171 h 271.616 c 0.485,-0.014 0.971,0.014 1.451,0.085 13.227,0.369 24.137,10.477 25.514,23.638 z"
               id="path1316" />
            <path
               style="fill:#795548"
               d="m 321.19,346.989 c 0.522,7.095 -1.933,14.087 -6.774,19.3 -4.842,5.213 -11.634,8.175 -18.749,8.177 H 49.659 c -13.785,0.295 -25.501,-10.012 -26.965,-23.723 -0.522,-7.092 1.931,-14.082 6.769,-19.294 4.838,-5.212 11.626,-8.177 18.737,-8.184 h 246.016 c 0.485,-0.014 0.971,0.014 1.451,0.085 13.231,0.367 24.146,10.475 25.523,23.639 z"
               id="path1318" />
            <path
               style="fill:#fdd834"
               d="m 321.267,263.533 v 59.819 c -0.48,-0.071 -0.966,-0.099 -1.451,-0.085 H 196.765 c -2.237,0.018 -4.379,0.905 -5.973,2.475 l -48.725,48.725 -48.725,-48.725 c -1.594,-1.57 -3.736,-2.457 -5.973,-2.475 H 48.2 v -59.733 h 273.067 z"
               id="path1320" />
            <path
               style="fill:#ff2a7f"
               d="m 295.667,267.8 v 59.819 c -0.48,-0.071 -0.966,-0.099 -1.451,-0.085 l -97.425,0.266 c -2.237,0.018 -32.539,36.563 -34.133,38.133 l -33.391,0.001 -35.925,-35.925 c -1.594,-1.57 -3.736,-2.457 -5.973,-2.475 H 48.2 V 267.8 Z"
               id="path1322"
               sodipodi:nodetypes="ccccccccccc" />
            <path
               style="fill:#dc7c19;fill-opacity:1"
               d="m 349.708,272.067 v 8.533 c 0,4.713 -3.82,8.533 -8.533,8.533 h -307.2 c -4.713,0 -8.533,-3.821 -8.533,-8.533 v -8.533 c 0,-47.128 38.205,-85.333 85.333,-85.333 h 153.6 c 47.128,-0.001 85.333,38.204 85.333,85.333 z"
               id="path1324" />
            <g
               id="g1330">
              <path
                 style="fill:#f4a025;fill-opacity:1"
                 d="m 315.575,272.067 v 8.533 c 0,4.713 -3.82,8.533 -8.533,8.533 H 33.975 c -4.713,0 -8.533,-3.821 -8.533,-8.533 v -8.533 c 0,-47.128 38.205,-85.333 85.333,-85.333 h 119.467 c 47.128,-0.001 85.333,38.204 85.333,85.333 z"
                 id="path1326" />
              <path
                 style="fill:#f4a025;fill-opacity:1"
                 d="m 315.575,434.2 v 25.6 c 0,28.277 -22.923,51.2 -51.2,51.2 H 76.642 c -28.277,0 -51.2,-22.923 -51.2,-51.2 v -25.6 c 0,-4.713 3.821,-8.533 8.533,-8.533 H 192.61 c 2.237,0.018 4.379,0.905 5.973,2.475 l 40.192,40.192 40.192,-40.192 c 1.594,-1.57 3.736,-2.457 5.973,-2.475 h 22.101 c 4.713,0 8.534,3.82 8.534,8.533 z"
                 id="path1328" />
            </g>
            <g
               id="g1336">
              <path
                 style="fill:#cfd8dc"
                 d="m 363.933,24.6 v 34.133 h -230.4 V 24.6 C 133.561,15.186 141.186,7.561 150.6,7.533 h 196.267 c 9.414,0.028 17.038,7.653 17.066,17.067 z"
                 id="path1332" />
              <path
                 style="fill:#cfd8dc"
                 d="M 389.533,58.733 V 75.8 c 0,4.713 -3.82,8.533 -8.533,8.533 H 116.467 c -4.713,0 -8.533,-3.82 -8.533,-8.533 V 58.733 c 0.028,-9.414 7.653,-17.039 17.067,-17.067 h 247.467 c 9.413,0.029 17.037,7.653 17.065,17.067 z"
                 id="path1334" />
            </g>
            <g
               id="g1342">
              <path
                 style="fill:#f4f4f4"
                 d="m 338.333,24.6 v 34.133 h -230.4 C 107.961,49.319 115.586,41.694 125,41.666 h 8.533 V 24.6 C 133.561,15.186 141.186,7.561 150.6,7.533 h 170.667 c 9.414,0.028 17.038,7.653 17.066,17.067 z"
                 id="path1338" />
              <path
                 style="fill:#f4f4f4"
                 d="M 363.933,58.733 V 75.8 c 0,4.713 -3.82,8.533 -8.533,8.533 H 116.467 c -4.713,0 -8.533,-3.82 -8.533,-8.533 V 58.733 c 0.028,-9.414 7.653,-17.039 17.067,-17.067 h 221.867 c 9.413,0.029 17.037,7.653 17.065,17.067 z"
                 id="path1340" />
            </g>
            <path
               style="fill:#bf1559;fill-opacity:1"
               d="M 483.315,288.28 450.462,502.467 H 260.253 L 227.485,288.366 c -0.545,-3.38 1.556,-6.625 4.864,-7.509 0.581,-0.174 1.185,-0.261 1.792,-0.256 h 7.339 c 1.024,0 1.963,0.085 2.987,0.171 l 188.416,1.621 22.955,0.171 h 1.963 c 3.702,-1.3 7.597,-1.963 11.52,-1.963 h 7.253 c 1.967,-0.031 3.848,0.803 5.146,2.282 1.297,1.477 1.88,3.451 1.595,5.397 z"
               id="path1344" />
            <path
               style="fill:#ff5599;fill-opacity:1"
               d="M 457.715,288.28 424.862,502.467 H 260.253 L 227.485,288.366 c -0.545,-3.38 1.556,-6.625 4.864,-7.509 l 199.851,1.707 c 0.216,-0.097 0.447,-0.154 0.683,-0.171 3.486,-1.202 7.15,-1.808 10.837,-1.792 h 7.253 c 1.812,0.013 3.551,0.715 4.864,1.963 1.512,1.49 2.211,3.619 1.878,5.716 z"
               id="path1346" />
            <g
               id="g1352">
              <path
                 style="fill:#ffb301"
                 d="m 372.543,353.219 c -14.399,2.318 -29.12,1.679 -43.264,-1.877 l 0.521,-2.475 V 201.923 c 0.005,-3.674 2.982,-6.651 6.656,-6.656 h 29.355 c 3.674,0.005 6.651,2.982 6.656,6.656 v 150.699 z"
                 id="path1348" />
              <path
                 style="fill:#ffb301"
                 d="M 287.133,246.467 V 325.4 c -6.019,-7.135 -10.833,-15.206 -14.251,-23.893 -4.797,-11.723 -15.789,-19.743 -28.416,-20.736 v -27.648 c 0.005,-3.674 2.982,-6.651 6.656,-6.656 z"
                 id="path1350" />
            </g>
            <g
               id="g1358">
              <path
                 style="fill:#fdd834"
                 d="m 329.8,209.859 v 136.533 l -0.512,2.475 h -0.085 c -16.444,-3.908 -31.194,-13.003 -42.069,-25.941 V 216.515 c 0.005,-3.674 2.982,-6.651 6.656,-6.656 z"
                 id="path1354" />
              <path
                 style="fill:#fdd834"
                 d="m 415.987,333.165 c -12.173,10.839 -27.29,17.818 -43.435,20.053 l -0.085,-0.597 V 212.333 H 406.6 c 4.713,0 8.533,3.821 8.533,8.533 v 111.275 z"
                 id="path1356" />
            </g>
            <path
               style="fill:#ffb301"
               d="m 457.8,244.589 v 37.973 c -9.045,3.158 -16.291,10.062 -19.883,18.944 -4.717,12.11 -12.198,22.951 -21.845,31.659 h -0.085 l -0.853,-1.024 v -94.208 h 36.011 c 3.673,0.005 6.65,2.982 6.655,6.656 z"
               id="path1360" />
            <path
               style="fill:#cfd8dc"
               d="m 389.533,429.933 c 0,21.208 -17.192,38.4 -38.4,38.4 -4.363,0.013 -8.696,-0.737 -12.8,-2.219 -15.31,-5.443 -25.536,-19.933 -25.536,-36.181 0,-16.248 10.227,-30.738 25.536,-36.181 4.104,-1.481 8.437,-2.232 12.8,-2.219 21.208,0 38.4,17.193 38.4,38.4 z"
               id="path1362" />
            <ellipse
               style="fill:#f4f4f4"
               cx="338.33301"
               cy="429.93301"
               rx="25.6"
               ry="36.181"
               id="ellipse1364" />
            <text
               transform="matrix(1.321586,0,0,1.321586,-88.381105,-162.44733)"
               style="font-size:100.889px;line-height:1.25;font-family:'SF Pro Display';-inkscape-font-specification:'SF Pro Display';text-align:center;letter-spacing:0px;word-spacing:0px;white-space:pre;shape-inside:url(#rect893);"
               id="text891"
               xml:space="preserve"><tspan
                 x="109.16997"
                 y="622.86548"><tspan
                   style="font-weight:bold;font-size:100.889px">Ăn Vặt</tspan></tspan></text>
          </g>
          <g
             id="g1378">
            <path
               d="m 110.933,230.4 h 8.533 c 4.713,0 8.533,-3.821 8.533,-8.533 0,-4.713 -3.821,-8.533 -8.533,-8.533 h -8.533 c -4.713,0 -8.533,3.821 -8.533,8.533 0,4.712 3.821,8.533 8.533,8.533 z"
               id="path1368" />
            <path
               d="m 162.133,247.467 h 8.533 c 4.713,0 8.533,-3.821 8.533,-8.533 0,-4.713 -3.821,-8.533 -8.533,-8.533 h -8.533 c -4.713,0 -8.533,3.821 -8.533,8.533 0,4.712 3.821,8.533 8.533,8.533 z"
               id="path1370" />
            <path
               d="m 213.333,230.4 h 8.533 c 4.713,0 8.533,-3.821 8.533,-8.533 0,-4.713 -3.821,-8.533 -8.533,-8.533 h -8.533 c -4.713,0 -8.533,3.821 -8.533,8.533 0,4.712 3.821,8.533 8.533,8.533 z"
               id="path1372" />
            <path
               d="M 503.467,494.933 H 463.412 L 494.772,290.5 c 0.64,-4.37 -0.66,-8.802 -3.558,-12.134 -2.925,-3.374 -7.174,-5.309 -11.639,-5.299 h -7.313 c -1.007,0 -1.971,0.154 -2.961,0.213 v -27.691 c -0.005,-8.374 -6.782,-15.166 -15.155,-15.189 h -27.477 v -17.067 c 0,-4.713 -3.82,-8.533 -8.533,-8.533 H 384 v -1.877 c -0.015,-7.104 -4.947,-13.251 -11.878,-14.805 l 10.94,-94.251 h 9.472 c 4.713,0 8.533,-3.821 8.533,-8.533 v -25.6 c 0,-14.138 -11.462,-25.6 -25.6,-25.6 V 25.6 C 375.467,11.462 364.005,0 349.867,0 H 153.6 C 139.462,0 128,11.462 128,25.6 v 8.533 c -14.138,0 -25.6,11.462 -25.6,25.6 v 25.6 c 0,4.713 3.821,8.533 8.533,8.533 h 9.472 l 8.934,76.8 h -18.406 c -51.816,0.061 -93.806,42.051 -93.867,93.867 v 8.533 c 0,9.426 7.641,17.067 17.067,17.067 h 8.533 v 26.812 c -15.987,4.007 -26.757,18.955 -25.498,35.388 1.285,14.422 11.488,26.483 25.498,30.14 V 409.6 h -8.533 c -9.426,0 -17.067,7.641 -17.067,17.067 v 25.6 c -0.002,16.069 6.492,31.457 18.005,42.667 H 8.533 C 3.82,494.934 0,498.755 0,503.467 0,508.18 3.821,512 8.533,512 h 494.933 c 4.713,0 8.533,-3.82 8.533,-8.533 10e-4,-4.713 -3.819,-8.534 -8.532,-8.534 z M 477.56,290.133 446.149,494.934 H 270.583 l -31.351,-204.801 5.214,0.001 c 10.256,-0.069 19.539,6.062 23.501,15.522 3.751,9.501 9.012,18.333 15.582,26.155 0.302,0.423 0.645,0.814 1.024,1.169 18.826,20.749 45.849,32.134 73.847,31.113 42.667,0 75.605,-21.333 90.453,-58.445 3.956,-9.437 13.209,-15.56 23.441,-15.514 z M 366.933,204.8 v 141.705 c -2.825,0.222 -5.615,0.521 -8.533,0.521 -5.724,-0.037 -11.433,-0.565 -17.067,-1.579 V 204.8 Z m -42.666,17.067 v 118.869 c -9.759,-3.905 -18.51,-9.963 -25.6,-17.724 V 221.867 Z M 281.6,294.886 C 276.175,284.945 266.929,277.647 256,274.679 V 256 h 25.6 z m -47.872,72.047 h -68.07 L 199.791,332.8 h 28.74 z M 452.267,247.467 v 30.583 c -8.775,4.548 -15.627,12.094 -19.311,21.265 -1.745,4.297 -3.849,8.439 -6.289,12.382 v -64.23 z m -42.667,-25.6 v 102.4 0.085 6.468 c -7.602,5.935 -16.302,10.308 -25.6,12.868 V 221.867 Z M 145.067,25.6 c 0,-4.713 3.82,-8.533 8.533,-8.533 h 196.267 c 4.713,0 8.533,3.821 8.533,8.533 v 8.533 H 145.067 Z m -25.6,34.133 c 0,-4.713 3.821,-8.533 8.533,-8.533 h 247.467 c 4.713,0 8.533,3.821 8.533,8.533 V 76.8 H 119.467 Z m 18.116,34.134 h 228.301 l -10.897,93.867 h -15.531 c -5.08,0.004 -9.822,2.547 -12.638,6.775 -16.077,-14.469 -36.705,-22.863 -58.317,-23.731 -1.323,-0.111 -2.645,-0.111 -3.968,-0.111 H 146.517 Z M 34.133,264.533 c 0.052,-42.394 34.406,-76.748 76.8,-76.8 h 153.6 c 0.896,0 1.783,0 3.004,0.077 16.475,0.637 32.299,6.599 45.099,16.99 H 296.79 c -8.387,0.005 -15.185,6.802 -15.189,15.189 v 18.944 h -27.477 c -8.387,0.005 -15.185,6.802 -15.189,15.189 v 18.944 h -204.8 v -8.533 z m 187.887,25.6 c 0,0.162 0,0.324 0,0.486 l 3.874,25.114 h -26.129 c -4.51,0.003 -8.836,1.792 -12.032,4.975 L 145.066,363.375 102.4,320.708 c -3.196,-3.183 -7.522,-4.972 -12.032,-4.975 H 59.733 v -25.6 z M 34.193,351.104 c -0.403,-4.946 1.41,-9.816 4.949,-13.295 3.187,-3.216 7.53,-5.02 12.058,-5.009 h 39.108 l 34.133,34.133 h -71.79 c -9.306,0.25 -17.286,-6.594 -18.458,-15.829 z M 59.733,384 h 176.64 l 8.943,58.385 -6.383,6.349 -34.133,-34.133 c -3.192,-3.193 -7.518,-4.991 -12.032,-5.001 H 59.733 Z m -25.6,68.267 v -25.6 H 51.2 192.691 l 40.192,40.192 c 3.332,3.331 8.734,3.331 12.066,0 l 3.516,-3.516 4.847,31.573 H 76.8 C 53.254,494.888 34.171,475.813 34.133,452.267 Z"
               id="path1374" />
            <path
               d="m 354.133,384 c -18.983,0 -36.096,11.435 -43.361,28.973 -7.264,17.538 -3.249,37.725 10.174,51.147 13.423,13.422 33.61,17.438 51.147,10.174 17.538,-7.264 28.973,-24.378 28.973,-43.361 C 401.038,405.025 380.042,384.028 354.133,384 Z m 0,76.8 c -16.495,0 -29.867,-13.372 -29.867,-29.867 0,-16.495 13.372,-29.867 29.867,-29.867 16.495,0 29.867,13.372 29.867,29.867 0,16.495 -13.372,29.867 -29.867,29.867 z"
               id="path1376" />
          </g>
        </g>
        <g
           id="g1382" />
        <g
           id="g1384" />
        <g
           id="g1386" />
        <g
           id="g1388" />
        <g
           id="g1390" />
        <g
           id="g1392" />
        <g
           id="g1394" />
        <g
           id="g1396" />
        <g
           id="g1398" />
        <g
           id="g1400" />
        <g
           id="g1402" />
        <g
           id="g1404" />
        <g
           id="g1406" />
        <g
           id="g1408" />
        <g
           id="g1410" />
      </g>
    </g>
  </g>
</svg>
