<?xml version="1.0" encoding="UTF-8" standalone="no"?>
<svg
   xmlns:dc="http://purl.org/dc/elements/1.1/"
   xmlns:cc="http://creativecommons.org/ns#"
   xmlns:rdf="http://www.w3.org/1999/02/22-rdf-syntax-ns#"
   xmlns:svg="http://www.w3.org/2000/svg"
   xmlns="http://www.w3.org/2000/svg"
   xmlns:sodipodi="http://sodipodi.sourceforge.net/DTD/sodipodi-0.dtd"
   xmlns:inkscape="http://www.inkscape.org/namespaces/inkscape"
   sodipodi:docname="fast-food.svg"
   inkscape:version="1.0 (6e3e5246a0, 2020-05-07)"
   id="svg8"
   version="1.1"
   viewBox="0 0 135.46641 135.46667"
   height="135.46666mm"
   width="135.4664mm">
  <defs
     id="defs2" />
  <sodipodi:namedview
     inkscape:window-maximized="1"
     inkscape:window-y="22"
     inkscape:window-x="0"
     inkscape:window-height="709"
     inkscape:window-width="1366"
     showgrid="false"
     inkscape:document-rotation="0"
     inkscape:current-layer="layer1"
     inkscape:document-units="mm"
     inkscape:cy="335.72346"
     inkscape:cx="25.251772"
     inkscape:zoom="0.45367491"
     inkscape:pageshadow="2"
     inkscape:pageopacity="0.0"
     borderopacity="1.0"
     bordercolor="#666666"
     pagecolor="#ffffff"
     id="base" />
  <metadata
     id="metadata5">
    <rdf:RDF>
      <cc:Work
         rdf:about="">
        <dc:format>image/svg+xml</dc:format>
        <dc:type
           rdf:resource="http://purl.org/dc/dcmitype/StillImage" />
        <dc:title></dc:title>
      </cc:Work>
    </rdf:RDF>
  </metadata>
  <g
     transform="translate(-37.500023,-58.493901)"
     id="layer1"
     inkscape:groupmode="layer"
     inkscape:label="Layer 1">
    <g
       transform="matrix(0.26458333,0,0,0.26458333,37.500023,58.493901)"
       id="g1471">
      <g
         id="g1380">
	<g
   transform="translate(3,1)"
   id="g1366">
		<polygon
   style="fill:#1566c0"
   points="166.216,451.267 125,75.8 372.467,75.8 331.251,451.267 "
   id="polygon1308" />

		<polygon
   style="fill:#2296f3"
   points="166.216,451.267 125,75.8 346.867,75.8 305.651,451.267 "
   id="polygon1310" />

		<path
   style="fill:#2e7d32"
   d="m 324.108,365.933 v 76.8 H 284.94 c -2.237,0.018 -4.379,0.905 -5.973,2.475 L 238.775,485.4 198.583,445.208 c -1.594,-1.57 -3.736,-2.457 -5.973,-2.475 H 51.042 v -76.8 z"
   id="path1312" />

		<path
   style="fill:#3db84a;fill-opacity:1"
   d="m 298.508,365.933 v 76.8 H 259.34 c -2.237,0.018 -4.379,0.905 -5.973,2.475 L 213.175,485.4 172.983,445.208 c -1.594,-1.57 -3.736,-2.457 -5.973,-2.475 H 51.042 v -76.8 z"
   id="path1314" />

		<path
   style="fill:#4e342e"
   d="m 349.623,355.523 c 0.522,7.094 -1.932,14.085 -6.772,19.297 -4.84,5.212 -11.63,8.176 -18.743,8.18 H 52.467 c -13.785,0.295 -25.501,-10.012 -26.965,-23.723 -0.522,-7.098 1.935,-14.093 6.78,-19.306 4.846,-5.213 11.643,-8.174 18.76,-8.171 h 271.616 c 0.485,-0.014 0.971,0.014 1.451,0.085 13.227,0.369 24.137,10.477 25.514,23.638 z"
   id="path1316" />

		<path
   style="fill:#795548"
   d="m 321.19,346.989 c 0.522,7.095 -1.933,14.087 -6.774,19.3 -4.842,5.213 -11.634,8.175 -18.749,8.177 H 49.659 c -13.785,0.295 -25.501,-10.012 -26.965,-23.723 -0.522,-7.092 1.931,-14.082 6.769,-19.294 4.838,-5.212 11.626,-8.177 18.737,-8.184 h 246.016 c 0.485,-0.014 0.971,0.014 1.451,0.085 13.231,0.367 24.146,10.475 25.523,23.639 z"
   id="path1318" />

		<path
   style="fill:#fdd834"
   d="m 321.267,263.533 v 59.819 c -0.48,-0.071 -0.966,-0.099 -1.451,-0.085 H 196.765 c -2.237,0.018 -4.379,0.905 -5.973,2.475 l -48.725,48.725 -48.725,-48.725 c -1.594,-1.57 -3.736,-2.457 -5.973,-2.475 H 48.2 v -59.733 h 273.067 z"
   id="path1320" />

		<path
   style="fill:#ffeb3a"
   d="m 295.667,267.8 v 59.819 c -0.48,-0.071 -0.966,-0.099 -1.451,-0.085 H 171.165 c -2.237,0.018 -4.379,0.905 -5.973,2.475 l -35.925,35.925 -35.925,-35.925 c -1.594,-1.57 -3.736,-2.457 -5.973,-2.475 H 48.2 V 267.8 Z"
   id="path1322" />

		<path
   style="fill:#dc7c19;fill-opacity:1"
   d="m 349.708,272.067 v 8.533 c 0,4.713 -3.82,8.533 -8.533,8.533 h -307.2 c -4.713,0 -8.533,-3.821 -8.533,-8.533 v -8.533 c 0,-47.128 38.205,-85.333 85.333,-85.333 h 153.6 c 47.128,-0.001 85.333,38.204 85.333,85.333 z"
   id="path1324" />

		<g
   id="g1330">
			<path
   style="fill:#f4a025;fill-opacity:1"
   d="m 315.575,272.067 v 8.533 c 0,4.713 -3.82,8.533 -8.533,8.533 H 33.975 c -4.713,0 -8.533,-3.821 -8.533,-8.533 v -8.533 c 0,-47.128 38.205,-85.333 85.333,-85.333 h 119.467 c 47.128,-0.001 85.333,38.204 85.333,85.333 z"
   id="path1326" />

			<path
   style="fill:#f4a025;fill-opacity:1"
   d="m 315.575,434.2 v 25.6 c 0,28.277 -22.923,51.2 -51.2,51.2 H 76.642 c -28.277,0 -51.2,-22.923 -51.2,-51.2 v -25.6 c 0,-4.713 3.821,-8.533 8.533,-8.533 H 192.61 c 2.237,0.018 4.379,0.905 5.973,2.475 l 40.192,40.192 40.192,-40.192 c 1.594,-1.57 3.736,-2.457 5.973,-2.475 h 22.101 c 4.713,0 8.534,3.82 8.534,8.533 z"
   id="path1328" />

		</g>

		<g
   id="g1336">
			<path
   style="fill:#cfd8dc"
   d="m 363.933,24.6 v 34.133 h -230.4 V 24.6 C 133.561,15.186 141.186,7.561 150.6,7.533 h 196.267 c 9.414,0.028 17.038,7.653 17.066,17.067 z"
   id="path1332" />

			<path
   style="fill:#cfd8dc"
   d="M 389.533,58.733 V 75.8 c 0,4.713 -3.82,8.533 -8.533,8.533 H 116.467 c -4.713,0 -8.533,-3.82 -8.533,-8.533 V 58.733 c 0.028,-9.414 7.653,-17.039 17.067,-17.067 h 247.467 c 9.413,0.029 17.037,7.653 17.065,17.067 z"
   id="path1334" />

		</g>

		<g
   id="g1342">
			<path
   style="fill:#f4f4f4"
   d="m 338.333,24.6 v 34.133 h -230.4 C 107.961,49.319 115.586,41.694 125,41.666 h 8.533 V 24.6 C 133.561,15.186 141.186,7.561 150.6,7.533 h 170.667 c 9.414,0.028 17.038,7.653 17.066,17.067 z"
   id="path1338" />

			<path
   style="fill:#f4f4f4"
   d="M 363.933,58.733 V 75.8 c 0,4.713 -3.82,8.533 -8.533,8.533 H 116.467 c -4.713,0 -8.533,-3.82 -8.533,-8.533 V 58.733 c 0.028,-9.414 7.653,-17.039 17.067,-17.067 h 221.867 c 9.413,0.029 17.037,7.653 17.065,17.067 z"
   id="path1340" />

		</g>

		<path
   style="fill:#c52835;fill-opacity:1"
   d="M 483.315,288.28 450.462,502.467 H 260.253 L 227.485,288.366 c -0.545,-3.38 1.556,-6.625 4.864,-7.509 0.581,-0.174 1.185,-0.261 1.792,-0.256 h 7.339 c 1.024,0 1.963,0.085 2.987,0.171 l 188.416,1.621 22.955,0.171 h 1.963 c 3.702,-1.3 7.597,-1.963 11.52,-1.963 h 7.253 c 1.967,-0.031 3.848,0.803 5.146,2.282 1.297,1.477 1.88,3.451 1.595,5.397 z"
   id="path1344" />

		<path
   style="fill:#ea3f4d;fill-opacity:1"
   d="M 457.715,288.28 424.862,502.467 H 260.253 L 227.485,288.366 c -0.545,-3.38 1.556,-6.625 4.864,-7.509 l 199.851,1.707 c 0.216,-0.097 0.447,-0.154 0.683,-0.171 3.486,-1.202 7.15,-1.808 10.837,-1.792 h 7.253 c 1.812,0.013 3.551,0.715 4.864,1.963 1.512,1.49 2.211,3.619 1.878,5.716 z"
   id="path1346" />

		<g
   id="g1352">
			<path
   style="fill:#ffb301"
   d="m 372.543,353.219 c -14.399,2.318 -29.12,1.679 -43.264,-1.877 l 0.521,-2.475 V 201.923 c 0.005,-3.674 2.982,-6.651 6.656,-6.656 h 29.355 c 3.674,0.005 6.651,2.982 6.656,6.656 v 150.699 z"
   id="path1348" />

			<path
   style="fill:#ffb301"
   d="M 287.133,246.467 V 325.4 c -6.019,-7.135 -10.833,-15.206 -14.251,-23.893 -4.797,-11.723 -15.789,-19.743 -28.416,-20.736 v -27.648 c 0.005,-3.674 2.982,-6.651 6.656,-6.656 z"
   id="path1350" />

		</g>

		<g
   id="g1358">
			<path
   style="fill:#fdd834"
   d="m 329.8,209.859 v 136.533 l -0.512,2.475 h -0.085 c -16.444,-3.908 -31.194,-13.003 -42.069,-25.941 V 216.515 c 0.005,-3.674 2.982,-6.651 6.656,-6.656 z"
   id="path1354" />

			<path
   style="fill:#fdd834"
   d="m 415.987,333.165 c -12.173,10.839 -27.29,17.818 -43.435,20.053 l -0.085,-0.597 V 212.333 H 406.6 c 4.713,0 8.533,3.821 8.533,8.533 v 111.275 z"
   id="path1356" />

		</g>

		<path
   style="fill:#ffb301"
   d="m 457.8,244.589 v 37.973 c -9.045,3.158 -16.291,10.062 -19.883,18.944 -4.717,12.11 -12.198,22.951 -21.845,31.659 h -0.085 l -0.853,-1.024 v -94.208 h 36.011 c 3.673,0.005 6.65,2.982 6.655,6.656 z"
   id="path1360" />

		<path
   style="fill:#cfd8dc"
   d="m 389.533,429.933 c 0,21.208 -17.192,38.4 -38.4,38.4 -4.363,0.013 -8.696,-0.737 -12.8,-2.219 -15.31,-5.443 -25.536,-19.933 -25.536,-36.181 0,-16.248 10.227,-30.738 25.536,-36.181 4.104,-1.481 8.437,-2.232 12.8,-2.219 21.208,0 38.4,17.193 38.4,38.4 z"
   id="path1362" />

		<ellipse
   style="fill:#f4f4f4"
   cx="338.33301"
   cy="429.93301"
   rx="25.6"
   ry="36.181"
   id="ellipse1364" />

	</g>

	<g
   id="g1378">
		<path
   d="m 110.933,230.4 h 8.533 c 4.713,0 8.533,-3.821 8.533,-8.533 0,-4.713 -3.821,-8.533 -8.533,-8.533 h -8.533 c -4.713,0 -8.533,3.821 -8.533,8.533 0,4.712 3.821,8.533 8.533,8.533 z"
   id="path1368" />

		<path
   d="m 162.133,247.467 h 8.533 c 4.713,0 8.533,-3.821 8.533,-8.533 0,-4.713 -3.821,-8.533 -8.533,-8.533 h -8.533 c -4.713,0 -8.533,3.821 -8.533,8.533 0,4.712 3.821,8.533 8.533,8.533 z"
   id="path1370" />

		<path
   d="m 213.333,230.4 h 8.533 c 4.713,0 8.533,-3.821 8.533,-8.533 0,-4.713 -3.821,-8.533 -8.533,-8.533 h -8.533 c -4.713,0 -8.533,3.821 -8.533,8.533 0,4.712 3.821,8.533 8.533,8.533 z"
   id="path1372" />

		<path
   d="M 503.467,494.933 H 463.412 L 494.772,290.5 c 0.64,-4.37 -0.66,-8.802 -3.558,-12.134 -2.925,-3.374 -7.174,-5.309 -11.639,-5.299 h -7.313 c -1.007,0 -1.971,0.154 -2.961,0.213 v -27.691 c -0.005,-8.374 -6.782,-15.166 -15.155,-15.189 h -27.477 v -17.067 c 0,-4.713 -3.82,-8.533 -8.533,-8.533 H 384 v -1.877 c -0.015,-7.104 -4.947,-13.251 -11.878,-14.805 l 10.94,-94.251 h 9.472 c 4.713,0 8.533,-3.821 8.533,-8.533 v -25.6 c 0,-14.138 -11.462,-25.6 -25.6,-25.6 V 25.6 C 375.467,11.462 364.005,0 349.867,0 H 153.6 C 139.462,0 128,11.462 128,25.6 v 8.533 c -14.138,0 -25.6,11.462 -25.6,25.6 v 25.6 c 0,4.713 3.821,8.533 8.533,8.533 h 9.472 l 8.934,76.8 h -18.406 c -51.816,0.061 -93.806,42.051 -93.867,93.867 v 8.533 c 0,9.426 7.641,17.067 17.067,17.067 h 8.533 v 26.812 c -15.987,4.007 -26.757,18.955 -25.498,35.388 1.285,14.422 11.488,26.483 25.498,30.14 V 409.6 h -8.533 c -9.426,0 -17.067,7.641 -17.067,17.067 v 25.6 c -0.002,16.069 6.492,31.457 18.005,42.667 H 8.533 C 3.82,494.934 0,498.755 0,503.467 0,508.18 3.821,512 8.533,512 h 494.933 c 4.713,0 8.533,-3.82 8.533,-8.533 10e-4,-4.713 -3.819,-8.534 -8.532,-8.534 z M 477.56,290.133 446.149,494.934 H 270.583 l -31.351,-204.801 5.214,0.001 c 10.256,-0.069 19.539,6.062 23.501,15.522 3.751,9.501 9.012,18.333 15.582,26.155 0.302,0.423 0.645,0.814 1.024,1.169 18.826,20.749 45.849,32.134 73.847,31.113 42.667,0 75.605,-21.333 90.453,-58.445 3.956,-9.437 13.209,-15.56 23.441,-15.514 z M 366.933,204.8 v 141.705 c -2.825,0.222 -5.615,0.521 -8.533,0.521 -5.724,-0.037 -11.433,-0.565 -17.067,-1.579 V 204.8 Z m -42.666,17.067 v 118.869 c -9.759,-3.905 -18.51,-9.963 -25.6,-17.724 V 221.867 Z M 281.6,294.886 C 276.175,284.945 266.929,277.647 256,274.679 V 256 h 25.6 z m -47.872,72.047 h -68.07 L 199.791,332.8 h 28.74 z M 452.267,247.467 v 30.583 c -8.775,4.548 -15.627,12.094 -19.311,21.265 -1.745,4.297 -3.849,8.439 -6.289,12.382 v -64.23 z m -42.667,-25.6 v 102.4 0.085 6.468 c -7.602,5.935 -16.302,10.308 -25.6,12.868 V 221.867 Z M 145.067,25.6 c 0,-4.713 3.82,-8.533 8.533,-8.533 h 196.267 c 4.713,0 8.533,3.821 8.533,8.533 v 8.533 H 145.067 Z m -25.6,34.133 c 0,-4.713 3.821,-8.533 8.533,-8.533 h 247.467 c 4.713,0 8.533,3.821 8.533,8.533 V 76.8 H 119.467 Z m 18.116,34.134 h 228.301 l -10.897,93.867 h -15.531 c -5.08,0.004 -9.822,2.547 -12.638,6.775 -16.077,-14.469 -36.705,-22.863 -58.317,-23.731 -1.323,-0.111 -2.645,-0.111 -3.968,-0.111 H 146.517 Z M 34.133,264.533 c 0.052,-42.394 34.406,-76.748 76.8,-76.8 h 153.6 c 0.896,0 1.783,0 3.004,0.077 16.475,0.637 32.299,6.599 45.099,16.99 H 296.79 c -8.387,0.005 -15.185,6.802 -15.189,15.189 v 18.944 h -27.477 c -8.387,0.005 -15.185,6.802 -15.189,15.189 v 18.944 h -204.8 v -8.533 z m 187.887,25.6 c 0,0.162 0,0.324 0,0.486 l 3.874,25.114 h -26.129 c -4.51,0.003 -8.836,1.792 -12.032,4.975 L 145.066,363.375 102.4,320.708 c -3.196,-3.183 -7.522,-4.972 -12.032,-4.975 H 59.733 v -25.6 z M 34.193,351.104 c -0.403,-4.946 1.41,-9.816 4.949,-13.295 3.187,-3.216 7.53,-5.02 12.058,-5.009 h 39.108 l 34.133,34.133 h -71.79 c -9.306,0.25 -17.286,-6.594 -18.458,-15.829 z M 59.733,384 h 176.64 l 8.943,58.385 -6.383,6.349 -34.133,-34.133 c -3.192,-3.193 -7.518,-4.991 -12.032,-5.001 H 59.733 Z m -25.6,68.267 v -25.6 H 51.2 192.691 l 40.192,40.192 c 3.332,3.331 8.734,3.331 12.066,0 l 3.516,-3.516 4.847,31.573 H 76.8 C 53.254,494.888 34.171,475.813 34.133,452.267 Z"
   id="path1374" />

		<path
   d="m 354.133,384 c -18.983,0 -36.096,11.435 -43.361,28.973 -7.264,17.538 -3.249,37.725 10.174,51.147 13.423,13.422 33.61,17.438 51.147,10.174 17.538,-7.264 28.973,-24.378 28.973,-43.361 C 401.038,405.025 380.042,384.028 354.133,384 Z m 0,76.8 c -16.495,0 -29.867,-13.372 -29.867,-29.867 0,-16.495 13.372,-29.867 29.867,-29.867 16.495,0 29.867,13.372 29.867,29.867 0,16.495 -13.372,29.867 -29.867,29.867 z"
   id="path1376" />

	</g>

</g>
      <g
         id="g1382">
</g>
      <g
         id="g1384">
</g>
      <g
         id="g1386">
</g>
      <g
         id="g1388">
</g>
      <g
         id="g1390">
</g>
      <g
         id="g1392">
</g>
      <g
         id="g1394">
</g>
      <g
         id="g1396">
</g>
      <g
         id="g1398">
</g>
      <g
         id="g1400">
</g>
      <g
         id="g1402">
</g>
      <g
         id="g1404">
</g>
      <g
         id="g1406">
</g>
      <g
         id="g1408">
</g>
      <g
         id="g1410">
</g>
    </g>
  </g>
</svg>
