<?xml version="1.0" encoding="UTF-8" standalone="no"?>
<svg
   xmlns:dc="http://purl.org/dc/elements/1.1/"
   xmlns:cc="http://creativecommons.org/ns#"
   xmlns:rdf="http://www.w3.org/1999/02/22-rdf-syntax-ns#"
   xmlns:svg="http://www.w3.org/2000/svg"
   xmlns="http://www.w3.org/2000/svg"
   xmlns:sodipodi="http://sodipodi.sourceforge.net/DTD/sodipodi-0.dtd"
   xmlns:inkscape="http://www.inkscape.org/namespaces/inkscape"
   inkscape:version="1.0 (6e3e5246a0, 2020-05-07)"
   sodipodi:docname="milk-tea.svg"
   id="svg8"
   version="1.1"
   viewBox="0 0 210.07796 210.07797"
   height="210.07794mm"
   width="210.07794mm">
  <defs
     id="defs2">
    <rect
       x="850.79034"
       y="1221.2079"
       width="1309.183"
       height="385.30655"
       id="rect2143" />
    <inkscape:path-effect
       only_selected="false"
       apply_with_weight="true"
       apply_no_weight="true"
       helper_size="0"
       steps="2"
       weight="33.333333"
       lpeversion="1"
       is_visible="true"
       id="path-effect1163"
       effect="bspline" />
    <rect
       x="1.4310606"
       y="529.75781"
       width="515.5835"
       height="141.35973"
       id="rect893" />
    <rect
       id="rect1507"
       height="110.65007"
       width="264.47125"
       y="86.520653"
       x="-105.08055" />
    <inkscape:path-effect
       lpeversion="1"
       is_visible="true"
       id="path-effect1925"
       effect="spiro" />
    <inkscape:path-effect
       lpeversion="1"
       is_visible="true"
       id="path-effect1923"
       effect="spiro" />
    <inkscape:path-effect
       lpeversion="1"
       is_visible="true"
       id="path-effect1921"
       effect="spiro" />
    <inkscape:path-effect
       lpeversion="1"
       is_visible="true"
       id="path-effect1858"
       effect="spiro" />
    <inkscape:path-effect
       lpeversion="1"
       is_visible="true"
       id="path-effect1856"
       effect="spiro" />
    <inkscape:path-effect
       lpeversion="1"
       is_visible="true"
       id="path-effect1854"
       effect="spiro" />
    <inkscape:path-effect
       effect="spiro"
       id="path-effect1753"
       is_visible="true"
       lpeversion="1" />
    <inkscape:path-effect
       effect="spiro"
       id="path-effect1751"
       is_visible="true"
       lpeversion="1" />
    <inkscape:path-effect
       effect="spiro"
       id="path-effect1749"
       is_visible="true"
       lpeversion="1" />
    <inkscape:path-effect
       effect="spiro"
       id="path-effect1686"
       is_visible="true"
       lpeversion="1" />
    <inkscape:path-effect
       effect="spiro"
       id="path-effect1684"
       is_visible="true"
       lpeversion="1" />
    <inkscape:path-effect
       effect="spiro"
       id="path-effect1682"
       is_visible="true"
       lpeversion="1" />
    <inkscape:path-effect
       effect="spiro"
       id="path-effect1619"
       is_visible="true"
       lpeversion="1" />
    <inkscape:path-effect
       effect="spiro"
       id="path-effect1617"
       is_visible="true"
       lpeversion="1" />
    <inkscape:path-effect
       effect="spiro"
       id="path-effect1615"
       is_visible="true"
       lpeversion="1" />
    <inkscape:path-effect
       lpeversion="1"
       is_visible="true"
       id="path-effect1440"
       effect="spiro" />
    <inkscape:path-effect
       lpeversion="1"
       is_visible="true"
       id="path-effect1436"
       effect="spiro" />
    <inkscape:path-effect
       lpeversion="1"
       is_visible="true"
       id="path-effect1432"
       effect="spiro" />
  </defs>
  <sodipodi:namedview
     inkscape:pagecheckerboard="true"
     inkscape:window-maximized="1"
     inkscape:window-y="22"
     inkscape:window-x="0"
     inkscape:window-height="709"
     inkscape:window-width="1366"
     showgrid="false"
     inkscape:document-rotation="0"
     inkscape:current-layer="g4110"
     inkscape:document-units="mm"
     inkscape:cy="521.71257"
     inkscape:cx="-172.65766"
     inkscape:zoom="0.37983057"
     inkscape:pageshadow="2"
     inkscape:pageopacity="0.0"
     borderopacity="1.0"
     bordercolor="#666666"
     pagecolor="#ffffff"
     id="base" />
  <metadata
     id="metadata5">
    <rdf:RDF>
      <cc:Work
         rdf:about="">
        <dc:format>image/svg+xml</dc:format>
        <dc:type
           rdf:resource="http://purl.org/dc/dcmitype/StillImage" />
        <dc:title></dc:title>
      </cc:Work>
    </rdf:RDF>
  </metadata>
  <g
     transform="translate(-261.581,-157.56473)"
     id="layer1"
     inkscape:groupmode="layer"
     inkscape:label="Layer 1">
    <g
       transform="matrix(0.26458333,0,0,0.26458333,37.501478,58.495674)"
       id="g4110">
      <g
         id="g4034"
         transform="translate(0,4.9078891)" />
      <g
         id="g4036"
         transform="translate(0,4.9078891)" />
      <g
         id="g4038"
         transform="translate(0,4.9078891)" />
      <g
         id="g4040"
         transform="translate(0,4.9078891)" />
      <g
         id="g4042"
         transform="translate(0,4.9078891)" />
      <g
         id="g4044"
         transform="translate(0,4.9078891)" />
      <g
         id="g4046"
         transform="translate(0,4.9078891)" />
      <g
         id="g4048"
         transform="translate(0,4.9078891)" />
      <g
         id="g4050"
         transform="translate(0,4.9078891)" />
      <g
         id="g4052"
         transform="translate(0,4.9078891)" />
      <g
         id="g4054"
         transform="translate(0,4.9078891)" />
      <g
         id="g4056"
         transform="translate(0,4.9078891)" />
      <g
         id="g4058"
         transform="translate(0,4.9078891)" />
      <g
         id="g4060"
         transform="translate(0,4.9078891)" />
      <g
         id="g4062"
         transform="translate(0,4.9078891)" />
      <g
         transform="matrix(0.7086602,0,0,0.70922144,715.55044,548.69835)"
         id="g1480">
        <g
           id="038---Frozen-Chicken"
           fill-rule="nonzero"
           transform="matrix(21.718143,-4.7201678,4.7201678,21.718143,529.00158,-1207.4849)"
           style="fill:none">
          <path
             id="path4204"
             d="m -8.6854107,65.270958 -0.083709,-0.0074 c 0,0 0.062472,0.01737 0.1351489,0.04551 z"
             fill="#783e22"
             style="stroke-width:0.23444" />
          <path
             id="path4206"
             d="M 0.62431509,65.157717 C -0.68834809,64.457587 -3.0433371,65.019834 -4.0574062,66.10838 l -0.013238,0.02482 -0.1675579,-0.08936 c -0.5407913,-0.309604 -1.1769005,-0.408498 -1.7861612,-0.277689 -0.099785,0.324109 -0.2608181,0.626067 -0.4743688,0.889505 0.2900504,-0.26823 0.6443062,-0.457221 1.0286215,-0.548756 0.6274328,-0.150895 1.2888285,-0.05582 1.8483561,0.265689 l 0.1675579,0.08936 0.013238,-0.02482 c 0.9239704,-0.990887 2.3618366,-1.312217 3.61972146,-0.808923 -0.09312919,-0.0651 0.54560592,-0.416635 0.44555223,-0.470489 z"
             fill="#783e22"
             sodipodi:nodetypes="cccccccccccc"
             style="stroke-width:0.23444" />
          <path
             id="path4202"
             d="m 0.53641977,68.15636 c -0.0888106,0.02703 -0.17968937,0.05296 -0.27153398,0.07572 -0.0626843,-0.09983 -1.48612749,0.598717 -1.56022209,0.507035 -1.3243006,0.892866 -2.4358545,0.18214 -3.3506014,-0.478191 -0.1349511,-0.09742 0.088372,-0.761334 -0.2225856,-0.44696 l -0.013238,0.02482 -0.1675579,-0.08936 c -0.559528,-0.321512 -1.2209233,-0.416584 -1.8483563,-0.26569 -0.3843151,0.09153 -0.7385708,0.280526 -1.0286213,0.548757 0.2195218,-0.268897 0.3844087,-0.578083 0.4854006,-0.910191 0.073392,-0.243407 0.076206,-0.502644 0.00811,-0.747587 -0.084388,-0.247259 -0.2390473,-0.464545 -0.4450395,-0.62525 -0.2688972,-0.219522 -0.5780825,-0.384409 -0.9101911,-0.485401 0.3903054,0.06114 0.7897803,0.02071 1.1599202,-0.117392 0.6051004,-0.224264 1.1013665,-0.671705 1.3868791,-1.25043 0.7829836,-1.498092 2.5635794,-2.883957 4.4171513,-3.455079 2.75836221,-0.837858 4.839808,0.415642 5.488579,2.547092 0.6487704,2.131449 -0.3707005,4.327073 -3.12809739,5.168103 z"
             fill="#a0522d"
             sodipodi:nodetypes="cccaccccccccccccsc"
             style="fill:#cc8033;fill-opacity:1;stroke-width:0.23444" />
          <path
             id="path4208"
             d="M 3.5729906,63.174827 C 3.2602675,62.058071 2.4593251,61.142618 1.394009,60.684317 c 0.7555743,0.515922 1.3068773,1.279892 1.5583967,2.159555 0.6478053,2.128277 -0.5861858,4.831587 -3.33227406,5.681304 0.0417867,0.0462 -0.28523062,0.108916 -0.24661583,0.156078 0.0742831,0.08929 0.0842951,-0.07949 0.14762108,0.01787 0.0918444,-0.02276 0.18272339,-0.04869 0.27153376,-0.07572 2.76056875,-0.84199 4.42909045,-3.317128 3.78031995,-5.448577 z"
             fill="#783e22"
             sodipodi:nodetypes="cccccccc"
             style="stroke-width:0.23444" />
          <g
             fill="#000000"
             id="g4238"
             transform="matrix(0.23443947,0,0,0.23443947,-10.548016,45.872263)"
             style="stroke:none;stroke-width:3.62687;stroke-miterlimit:4;stroke-dasharray:none;stroke-opacity:1">
            <path
               id="path4216"
               d="M 60.559721,69.256114 C 55.699246,62.002927 48.532425,57.640869 36.964882,61.161799 28.847308,63.632628 21.03102,69.788741 17.511215,76.388845 c -1.101849,2.241733 -3.020487,3.976287 -5.361622,4.847217 -1.38968,0.519717 -2.8873349,0.683359 -4.3564573,0.476011 -0.4613101,-0.131955 -0.951325,0.08234 -1.167632,0.510623 -0.2598844,0.487318 -0.075513,1.093045 0.4118047,1.352929 l 0.211768,0.112935 c 0.6416502,0.196382 -0.2401869,0.135553 0.3443811,0.46504 l -7.04476799,2.219106 c -0.91042199,-2.134114 -3.74009181,-2.944797 -5.95903621,-2.266859 -2.3983766,0.730234 -3.9138886,4.016473 -3.1840502,6.41497 0.3848785,1.314051 1.4249878,2.008419 2.6892536,2.534247 -0.087137,0.142248 -0.3287447,1.039746 -0.3983222,1.191358 -0.9348694,1.759975 -0.4496541,3.173683 0.9573764,4.58498 1.4070307,1.411298 3.7819727,2.571708 5.54477153,1.642178 C 1.9614809,99.544049 3.8252218,96.986464 3.4554633,95.028206 l 7.9170507,-2.443507 c -0.309593,0.594339 -0.590289,0.784659 -1.000783,1.314357 -0.04773,0.06867 -0.08721,0.142702 -0.117641,0.220592 -0.193188,0.36141 -0.146317,0.804111 0.118269,1.117055 0.08203,0.0965 0.181636,0.176549 0.293536,0.235874 0.24064,0.127199 0.522754,0.150734 0.781179,0.06527 0.176758,-0.05623 0.334394,-0.160512 0.455286,-0.30119 1.099625,-1.003144 2.433522,-1.714135 3.87935,-2.067762 2.293536,-0.549493 4.708861,-0.240955 6.790614,0.867447 2.033973,3.175509 7.789979,5.328236 12.277406,5.569924 5.903144,0.317936 11.863214,-2.366215 16.8443,-5.550078 3.441237,-2.199605 6.35317,-5.397944 8.366185,-8.951554 1.510676,-2.666825 2.538953,-5.773922 2.533926,-8.838896 -0.004,-2.432958 -0.966811,-5.416453 -2.03442,-7.009624 z M 1.2134763,93.242268 c -0.2744341,0.0839 -0.4995988,0.281651 -0.6182192,0.542959 -0.120716,0.260424 -0.1237097,0.560163 -0.00821,0.822942 l 0.046474,0.104116 c 0.033532,0.08588 0.080593,0.167645 0.1053014,0.24882 0.4008913,1.344124 -0.35448703,2.760559 -1.69402371,3.176521 -1.33996669,0.362014 -2.73059099,-0.379599 -3.17652069,-1.694024 -0.4008914,-1.344124 0.354487,-2.760559 1.6940238,-3.17652 0.5256511,-0.161708 0.82207,-0.717533 0.6634927,-1.244138 -0.1617078,-0.525651 -0.7175329,-0.82207 -1.2441373,-0.663492 -1.3447071,0.406761 -2.7651086,-0.350733 -3.1765206,-1.694024 -0.4008914,-1.344124 0.354487,-2.760559 1.6940238,-3.176521 1.3447071,-0.406761 2.7651086,0.350732 3.1765206,1.694024 0.023952,0.08696 0.041065,0.175662 0.051184,0.265293 l 0.019415,0.112352 c 0.041917,0.282357 0.2098666,0.53037 0.45649049,0.674104 0.2492986,0.132194 0.54284449,0.152908 0.80823698,0.05703 L 11.159142,85.898444 c 0.515877,0.493828 0.900961,1.108104 1.120642,1.787614 0.191289,0.685627 0.218314,1.406683 0.07888,2.104704 z M 23.902865,92.43395 c -2.614788,-1.495738 -5.705421,-1.926265 -8.629447,-1.202098 -0.459489,0.107563 -0.911434,0.245126 -1.352929,0.411805 0.571632,-1.440503 0.666624,-3.026273 0.271043,-4.524714 -0.504164,-1.464864 -1.469218,-2.727034 -2.750695,-3.597566 0.457594,-0.114503 0.909141,-0.251944 1.352929,-0.411804 2.830013,-1.030435 5.155772,-3.109084 6.496299,-5.806075 3.240993,-6.204801 10.562002,-11.899723 18.246638,-14.238774 10.444025,-3.156779 19.350617,0.947075 22.171479,10.214639 2.820862,9.267564 -6.304696,16.656037 -13.244585,21.33761 -3.824787,2.58016 -9.075679,3.052847 -13.637693,2.364183 -3.300893,-0.49829 -5.419208,-1.395754 -8.923039,-4.547206 z"
               sodipodi:nodetypes="ssccccscccccccssccccccccccaaaascccccccccccccccccccccccccccccsaac"
               style="stroke:none;stroke-width:3.62687;stroke-miterlimit:4;stroke-dasharray:none;stroke-opacity:1" />
            <path
               id="path4218"
               d="m 52.115121,69.241352 c 0.347175,-0.104353 0.612306,-0.385995 0.695522,-0.738833 0.08321,-0.352841 -0.02813,-0.72327 -0.292088,-0.971756 -0.263959,-0.248486 -0.640434,-0.337276 -0.987609,-0.232923 -0.261242,0.07429 -0.481027,0.251649 -0.608832,0.4913 -0.127805,0.23965 -0.152633,0.520977 -0.06878,0.779308 0.07547,0.25831 0.251858,0.475302 0.489311,0.601935 0.237453,0.126632 0.515922,0.152216 0.772473,0.07097 z"
               style="stroke:none;stroke-width:3.62687;stroke-miterlimit:4;stroke-dasharray:none;stroke-opacity:1" />
            <path
               id="path4220"
               d="m 48.329767,67.22264 c 0.523729,-0.165859 0.815593,-0.723148 0.653662,-1.248102 -0.161935,-0.524955 -0.717024,-0.820982 -1.243177,-0.66298 -0.526156,0.158 -0.826329,0.710858 -0.672269,1.238179 0.07547,0.25831 0.251859,0.475302 0.489311,0.601934 0.237453,0.126633 0.515923,0.152216 0.772473,0.07097 z"
               style="stroke:none;stroke-width:3.62687;stroke-miterlimit:4;stroke-dasharray:none;stroke-opacity:1" />
            <path
               id="path4222"
               d="m 43.836215,66.446891 c 0.520751,-0.169039 0.808751,-0.725412 0.646119,-1.248196 -0.162638,-0.522786 -0.715435,-0.81759 -1.240178,-0.661381 -0.524745,0.156209 -0.826309,0.705349 -0.676549,1.231967 0.07429,0.261242 0.251649,0.481027 0.4913,0.608832 0.239651,0.127805 0.520978,0.152633 0.779308,0.06878 z"
               style="stroke:none;stroke-width:3.62687;stroke-miterlimit:4;stroke-dasharray:none;stroke-opacity:1" />
            <path
               id="path4224"
               d="m 42.224497,68.023997 c -0.258311,0.07547 -0.475302,0.251859 -0.601934,0.489312 -0.126633,0.237453 -0.152217,0.515922 -0.07097,0.772473 0.07547,0.258311 0.251859,0.475301 0.489312,0.601934 0.237453,0.126632 0.515922,0.152217 0.772473,0.07097 0.53425,-0.162615 0.835519,-0.727535 0.672903,-1.261785 -0.162615,-0.53425 -0.727534,-0.835519 -1.261784,-0.672904 z"
               style="stroke:none;stroke-width:3.62687;stroke-miterlimit:4;stroke-dasharray:none;stroke-opacity:1" />
            <path
               id="path4226"
               d="m 44.965248,73.531563 c 0.25831,-0.07547 0.475301,-0.251859 0.601934,-0.489312 0.126632,-0.237452 0.152217,-0.515921 0.07097,-0.772472 -0.07547,-0.258311 -0.251859,-0.475302 -0.489312,-0.601934 -0.237453,-0.126633 -0.515922,-0.152217 -0.772473,-0.07097 -0.345599,0.105193 -0.608826,0.386771 -0.690524,0.738665 -0.0817,0.351894 0.03054,0.720644 0.29444,0.967344 0.263899,0.246701 0.639383,0.33384 0.984965,0.228679 z"
               style="stroke:none;stroke-width:3.62687;stroke-miterlimit:4;stroke-dasharray:none;stroke-opacity:1" />
            <path
               id="path4228"
               d="m 46.68746,68.772101 c -0.52075,0.169038 -0.808751,0.725411 -0.646118,1.248195 0.162637,0.522787 0.715434,0.817591 1.240177,0.661381 0.524745,-0.156208 0.82631,-0.705349 0.676549,-1.231967 -0.07429,-0.261241 -0.251649,-0.481027 -0.491299,-0.608832 -0.239651,-0.127804 -0.520978,-0.152633 -0.779309,-0.06878 z"
               style="stroke:none;stroke-width:3.62687;stroke-miterlimit:4;stroke-dasharray:none;stroke-opacity:1" />
            <path
               id="path4230"
               d="m 50.481638,70.795518 c -0.523729,0.165859 -0.815593,0.723148 -0.653662,1.248102 0.161935,0.524955 0.717025,0.820982 1.243177,0.66298 0.526156,-0.157999 0.826328,-0.710857 0.672269,-1.238178 -0.07547,-0.258311 -0.251859,-0.475302 -0.489311,-0.601935 -0.237453,-0.126632 -0.515923,-0.152216 -0.772473,-0.07097 z"
               style="stroke:none;stroke-width:3.62687;stroke-miterlimit:4;stroke-dasharray:none;stroke-opacity:1" />
            <path
               id="path4232"
               d="m 55.236395,72.526554 c 0.25831,-0.07547 0.475301,-0.251859 0.601934,-0.489312 0.126632,-0.237452 0.152217,-0.515921 0.07097,-0.772473 -0.105194,-0.345598 -0.386771,-0.608825 -0.738665,-0.690524 -0.351894,-0.0817 -0.720644,0.03054 -0.967344,0.29444 -0.246702,0.2639 -0.333841,0.639384 -0.22868,0.984965 0.07547,0.258311 0.251859,0.475302 0.489312,0.601935 0.237453,0.126632 0.515922,0.152216 0.772473,0.07097 z"
               style="stroke:none;stroke-width:3.62687;stroke-miterlimit:4;stroke-dasharray:none;stroke-opacity:1" />
            <path
               id="path4234"
               d="m 48.750602,75.550275 c 0.25831,-0.07547 0.475301,-0.251859 0.601934,-0.489312 0.126632,-0.237453 0.152217,-0.515922 0.07097,-0.772473 -0.162616,-0.53425 -0.727535,-0.835519 -1.261785,-0.672903 -0.53425,0.162615 -0.835519,0.727534 -0.672904,1.261784 0.07547,0.258311 0.251859,0.475303 0.489311,0.601935 0.237453,0.126633 0.515923,0.152216 0.772474,0.07097 z"
               style="stroke:none;stroke-width:3.62687;stroke-miterlimit:4;stroke-dasharray:none;stroke-opacity:1" />
            <path
               id="path4236"
               d="m 39.090282,64.72056 c -0.520751,0.169038 -0.808752,0.725412 -0.646119,1.248196 0.162637,0.522786 0.715435,0.817591 1.240177,0.66138 0.524745,-0.156208 0.82631,-0.705348 0.67655,-1.231966 -0.07429,-0.261242 -0.251649,-0.481027 -0.4913,-0.608832 -0.239651,-0.127805 -0.520978,-0.152633 -0.779308,-0.06878 z"
               style="stroke:none;stroke-width:3.62687;stroke-miterlimit:4;stroke-dasharray:none;stroke-opacity:1" />
          </g>
          <path
             id="path4210"
             d="m -7.461858,67.121753 -2.746778,0.836064 c 0.01816,0.03572 0.034,0.07257 0.04744,0.110324 0.0982,0.321181 -0.0069,0.66989 -0.266143,0.883367 -0.259287,0.213476 -0.621679,0.249629 -0.918031,0.09159 -0.296351,-0.158043 -0.468232,-0.479123 -0.435418,-0.813376 0.03281,-0.334253 0.263855,-0.615776 0.585284,-0.71317 -0.321183,0.0982 -0.669891,-0.0069 -0.883367,-0.266143 -0.213477,-0.259287 -0.24963,-0.621678 -0.09159,-0.91803 0.158044,-0.296352 0.479123,-0.468233 0.813376,-0.435418 0.334253,0.03281 0.615776,0.263854 0.71317,0.585283 0.0099,0.03884 0.01724,0.07827 0.02207,0.118046 l 2.742916,-0.848752 c 0.1965585,0.16124 0.3433266,0.374947 0.4232505,0.616288 0.070841,0.246895 0.069413,0.508924 -0.00411,0.755033 z"
             fill="#ffe0b2"
             style="stroke-width:0.23444" />
          <path
             id="path4212"
             d="m -7.4597895,67.122856 c 0.073392,-0.243407 0.076206,-0.502644 0.00811,-0.747586 -0.07911,-0.245145 -0.227035,-0.462375 -0.4261464,-0.625803 l -0.2791186,0.08496 c 0.033803,0.06335 0.061555,0.129744 0.082887,0.198306 0.070932,0.2484 0.068738,0.511985 -0.00632,0.75917 l -2.7455375,0.828756 c 0.01816,0.03572 0.034,0.07257 0.04744,0.110323 0.131296,0.437736 -0.114937,0.899456 -0.551592,1.034308 -0.09164,0.02761 -0.187475,0.03859 -0.282981,0.03242 0.242592,0.318687 0.678177,0.418654 1.035451,0.237635 0.357275,-0.181019 0.534297,-0.591372 0.42081,-0.975473 -0.01344,-0.03775 -0.02929,-0.0746 -0.04744,-0.110323 l 2.7423647,-0.82779 z"
             fill="#dfc49c"
             style="stroke-width:0.23444" />
        </g>
      </g>
      <g
         transform="matrix(3.7795276,0,0,3.7795276,846.18056,193.17983)"
         id="layer1-1"
         inkscape:label="Layer 1">
        <g
           transform="matrix(2.2577778,0,0,2.2577778,57.819889,58.193893)"
           style="fill:none"
           fill-rule="nonzero"
           id="031---Cup-and-Straw">
          <path
             style="fill:#ffffff"
             fill="#ef314c"
             d="M 36.88,40.15 35.27,56.3 c -0.153876,1.531071 -1.441218,2.697454 -2.98,2.7 H 9.71 C 8.1712183,58.997455 6.8838763,57.831071 6.73,56.3 L 5.12,40.16 c 0.7226609,0.567901 1.6212389,0.865069 2.54,0.84 3.34,0 3.34,-3 6.67,-3 1.89,0 2.71,0.97 3.67,1.8 V 51 c 0,0.552285 0.447715,1 1,1 h 4 c 0.552285,0 1,-0.447715 1,-1 V 39.79 C 24.95,38.96 25.77,38 27.66,38 c 3.33,0 3.33,3 6.67,3 0.923256,0.02365 1.825585,-0.277127 2.55,-0.85 z"
             id="Shape" />
          <path
             style="fill:#b3b3b3"
             fill="#bb193b"
             d="m 34.33,41 c -0.177743,-4.53e-4 -0.355333,-0.01047 -0.532,-0.03 L 32.27,56.3 c -0.153876,1.531071 -1.441218,2.697454 -2.98,2.7 h 3 c 1.538782,-0.0025 2.826124,-1.168929 2.98,-2.7 l 1.61,-16.15 c -0.724415,0.572873 -1.626744,0.87365 -2.55,0.85 z"
             id="path2463" />
          <path
             style="fill:#ffd5e5"
             fill="#3f51b5"
             d="M 18,29 V 39.8 C 17.04,38.97 16.22,38 14.33,38 11,38 11,41 7.66,41 6.7412389,41.025069 5.8426609,40.727901 5.12,40.16 L 4,29 Z"
             id="path2465" />
          <path
             style="fill:#ffd5e5"
             fill="#3f51b5"
             d="m 38,29 -1.11,11.15 h -0.01 c -0.724415,0.572873 -1.626744,0.87365 -2.55,0.85 -3.34,0 -3.34,-3 -6.67,-3 -1.89,0 -2.71,0.96 -3.66,1.79 V 29 Z"
             id="path2467" />
          <path
             style="fill:#e9afc6"
             fill="#283593"
             d="m 35,29 -1.11,11.15 h -0.01 c -0.320296,0.248884 -0.675422,0.449359 -1.054,0.595 0.480466,0.175008 0.988694,0.261406 1.5,0.255 0.923256,0.02365 1.825585,-0.277127 2.55,-0.85 h 0.01 L 38,29 Z"
             id="path2469" />
          <path
             style="fill:#f4d7e3"
             fill="#283593"
             d="m 41,26.5 c 0.0021,0.663693 -0.260573,1.300819 -0.729877,1.770123 C 39.800819,28.739427 39.163693,29.002134 38.5,29 H 3.5 C 2.1192881,29 1,27.880712 1,26.5 1,25.119288 2.1192881,24 3.5,24 h 35 c 1.380712,0 2.5,1.119288 2.5,2.5 z"
             id="path2471" />
          <path
             style="fill:#ffd5e5"
             fill="#3f51b5"
             d="M 38,24 H 24 V 9.04 C 31.875988,9.5662358 37.996511,16.106452 38,24 Z"
             id="path2473" />
          <path
             style="fill:#e9afc6"
             fill="#283593"
             d="M 24,9.04 V 9.552 C 30.496405,11.349462 34.996031,17.259516 35,24 h 3 C 37.996511,16.106452 31.875988,9.5662358 24,9.04 Z"
             id="path2475" />
          <path
             style="fill:#ffd5e5"
             fill="#3f51b5"
             d="M 18,9.04 V 24 H 4 C 4.0098741,16.108976 10.126954,9.5724399 18,9.04 Z"
             id="path2477" />
          <path
             fill="#0377bc"
             d="M 24,9.04 V 24 H 18 V 9.04 C 18.33,9.01 18.66,9 19,9 h 4 c 0.34,0 0.67,0.01 1,0.04 z"
             id="path2479"
             style="fill:#d35f8d" />
          <path
             style="fill:#ff80b2"
             fill="#02a9f4"
             d="M 24,2 V 9.04 C 23.67,9.01 23.34,9 23,9 H 19 C 18.66,9 18.33,9.01 18,9.04 V 2 c 0,-0.5522848 0.447715,-1 1,-1 h 4 c 0.552285,0 1,0.4477152 1,1 z"
             id="path2481" />
          <g
             style="fill:#d35f8d;fill-opacity:1"
             id="g2489"
             fill="#0377bc">
            <path
               style="fill:#d35f8d;fill-opacity:1"
               d="M 18,9.04 C 18.33,9.01 18.66,9 19,9 h -1 z"
               id="path2483" />
            <path
               style="fill:#d35f8d;fill-opacity:1"
               d="m 23,1 h -3 c 0.552285,0 1,0.4477152 1,1 v 7 h 2 c 0.34,0 0.67,0.01 1,0.04 V 2 C 24,1.4477152 23.552285,1 23,1 Z"
               id="path2485" />
            <path
               style="fill:#d35f8d;fill-opacity:1"
               d="M 24,29 V 39.79 C 23.198527,40.579135 22.114665,41.01484 20.99,41 19.872525,41.018304 18.794773,40.585762 18,39.8 V 29 Z"
               id="path2487" />
          </g>
          <path
             style="fill:#ffd5e5"
             fill="#bb193b"
             d="M 24,39.79 V 51 c 0,0.552285 -0.447715,1 -1,1 h -4 c -0.552285,0 -1,-0.447715 -1,-1 V 39.8 c 0.794773,0.785762 1.872525,1.218304 2.99,1.2 1.124665,0.01484 2.208527,-0.420865 3.01,-1.21 z"
             id="path2491" />
          <path
             fill="#f5f5f5"
             d="M 8.752,21 C 8.4213938,20.999997 8.1121559,20.836594 7.9258698,20.563468 7.7395837,20.290342 7.7003287,19.942797 7.821,19.635 c 1.0215006,-2.597513 2.911801,-4.760633 5.349,-6.121 0.312365,-0.180485 0.697728,-0.178734 1.008439,0.0046 0.310711,0.183317 0.498597,0.519779 0.491671,0.880471 -0.0069,0.360692 -0.20759,0.689692 -0.52511,0.860946 -2.03162,1.133477 -3.607959,2.935613 -4.461,5.1 C 9.5353115,20.745332 9.165024,20.999607 8.752,21 Z"
             id="path2493" />
          <path
             fill="#000000"
             d="M 3.091,29.959 5.735,56.4 c 0.1996162,2.046894 1.9234045,3.6061 3.98,3.6 h 22.57 c 2.056595,0.0061 3.780384,-1.553106 3.98,-3.6 l 2.644,-26.439 c 1.752138,-0.197652 3.079761,-1.674192 3.090729,-3.437409 C 42.010696,24.760374 40.701544,23.267433 38.952,23.048 38.486717,15.371986 32.62833,9.1117582 25,8.139 V 2 C 25,0.8954305 24.104569,0 23,0 H 19 C 17.89543,0 17,0.8954305 17,2 V 8.139 C 9.3723704,9.1116092 3.5142076,15.370757 3.048,23.046 1.2984563,23.265433 -0.01069645,24.758374 2.7105e-4,26.521591 0.01123855,28.284808 1.338862,29.761348 3.091,29.959 Z M 34.275,56.2 c -0.100033,1.023334 -0.961792,1.802815 -1.99,1.8 H 9.715 C 8.6867923,58.0028 7.8250328,57.223334 7.725,56.2 L 6.287,41.817 c 0.4478208,0.12015 0.9093431,0.181664 1.373,0.183 1.5222196,-0.0051 2.974049,-0.641732 4.009,-1.758 0.659502,-0.786006 1.632965,-1.239955 2.659,-1.239955 1.026035,0 1.999498,0.453949 2.659,1.239955 L 17,40.25 V 51 c 0,1.10457 0.89543,2 2,2 h 4 c 1.104569,0 2,-0.89543 2,-2 V 40.238 c 0.660074,-0.786117 1.634012,-1.240076 2.6605,-1.240076 1.026488,0 2.000426,0.453959 2.6605,1.240076 1.034253,1.117746 2.486174,1.755881 4.009,1.762 0.467766,-9.89e-4 0.933273,-0.06489 1.384,-0.19 z M 23,30 v 9.312 c -1.175616,0.912716 -2.818928,0.917646 -4,0.012 V 30 Z m 13.9,0 -0.959,9.586 c -0.485887,0.290357 -1.045325,0.434123 -1.611,0.414 -1.028451,-0.01061 -2.00233,-0.464381 -2.672,-1.245 -1.032415,-1.114179 -2.481037,-1.749762 -4,-1.755 -0.936153,-0.01785 -1.858281,0.229319 -2.66,0.713 V 30 Z M 19,41.625 c 1.286463,0.503471 2.71607,0.499897 4,-0.01 V 51 H 19 Z M 36.965,23 H 25 V 10.159 C 31.50641,11.103311 36.482004,16.443186 36.965,23 Z M 19,23 V 10 h 4 V 23 Z M 19,2 h 4 v 6 h -4 z m -2,8.159 V 23 H 5.035 C 5.5179958,16.443186 10.49359,11.103311 17,10.159 Z M 3.5,25 h 35 c 0.828427,0 1.5,0.671573 1.5,1.5 0,0.828427 -0.671573,1.5 -1.5,1.5 H 15 c -0.552285,0 -1,0.447715 -1,1 0,0.552285 0.447715,1 1,1 h 2 v 7.723 C 16.19679,37.233169 15.270622,36.982376 14.33,37 c -1.518912,0.0055 -2.967442,0.641022 -4,1.755 C 9.6609499,39.53531 8.6878097,39.989078 7.66,40 7.0996966,40.019464 6.5452259,39.880846 6.06,39.6 L 5.1,30 H 11 c 0.552285,0 1,-0.447715 1,-1 0,-0.552285 -0.447715,-1 -1,-1 H 3.5 C 2.6715729,28 2,27.328427 2,26.5 2,25.671573 2.6715729,25 3.5,25 Z"
             id="path2495" />
        </g>
        <circle
           r="4.9715509"
           style="fill:#333333;fill-opacity:1;stroke:none;stroke-width:0.499999;stroke-linecap:round;stroke-linejoin:round;stroke-miterlimit:4;stroke-dasharray:none"
           id="path2545-5"
           cx="107.74619"
           cy="182.76273" />
        <circle
           r="4.9715509"
           cy="166.1255"
           cx="83.923737"
           id="path2545"
           style="fill:#333333;fill-opacity:1;stroke:none;stroke-width:0.499999;stroke-linecap:round;stroke-linejoin:round;stroke-miterlimit:4;stroke-dasharray:none" />
        <circle
           r="4.9715509"
           style="fill:#333333;fill-opacity:1;stroke:none;stroke-width:0.499999;stroke-linecap:round;stroke-linejoin:round;stroke-miterlimit:4;stroke-dasharray:none"
           id="path2545-4"
           cx="90.264511"
           cy="181.98466" />
        <circle
           r="4.9715509"
           style="fill:#333333;fill-opacity:1;stroke:none;stroke-width:0.499999;stroke-linecap:round;stroke-linejoin:round;stroke-miterlimit:4;stroke-dasharray:none"
           id="path2545-2"
           cx="122.24954"
           cy="165.01561" />
        <circle
           r="4.9715509"
           style="fill:#333333;fill-opacity:1;stroke:none;stroke-width:0.499999;stroke-linecap:round;stroke-linejoin:round;stroke-miterlimit:4;stroke-dasharray:none"
           id="path2545-0"
           cx="124.36221"
           cy="179.09486" />
        <text
           transform="translate(78.456912,113.74318)"
           style="font-size:35.2778px;line-height:1.25;font-family:'SF Pro Display';-inkscape-font-specification:'SF Pro Display';text-align:center;letter-spacing:0px;word-spacing:0px;white-space:pre;shape-inside:url(#rect1507);"
           id="text1505"
           xml:space="preserve"><tspan
             x="-33.754056"
             y="119.07839"><tspan
               style="font-weight:bold">Trà Sữa</tspan></tspan></text>
      </g>
    </g>
  </g>
</svg>
