<?xml version="1.0" encoding="UTF-8" standalone="no"?>
<!-- Created with Inkscape (http://www.inkscape.org/) -->

<svg
   xmlns:dc="http://purl.org/dc/elements/1.1/"
   xmlns:cc="http://creativecommons.org/ns#"
   xmlns:rdf="http://www.w3.org/1999/02/22-rdf-syntax-ns#"
   xmlns:svg="http://www.w3.org/2000/svg"
   xmlns="http://www.w3.org/2000/svg"
   xmlns:sodipodi="http://sodipodi.sourceforge.net/DTD/sodipodi-0.dtd"
   xmlns:inkscape="http://www.inkscape.org/namespaces/inkscape"
   width="174.27223mm"
   height="157.3389mm"
   viewBox="0 0 174.27223 157.3389"
   version="1.1"
   id="svg8"
   inkscape:version="0.92.5 (2060ec1f9f, 2020-04-08)"
   sodipodi:docname="policy.svg">
  <defs
     id="defs2" />
  <sodipodi:namedview
     id="base"
     pagecolor="#ffffff"
     bordercolor="#666666"
     borderopacity="1.0"
     inkscape:pageopacity="0.0"
     inkscape:pageshadow="2"
     inkscape:zoom="0.69999999"
     inkscape:cx="336.41165"
     inkscape:cy="288.57378"
     inkscape:document-units="mm"
     inkscape:current-layer="g1069"
     showgrid="false"
     inkscape:window-width="1366"
     inkscape:window-height="709"
     inkscape:window-x="0"
     inkscape:window-y="22"
     inkscape:window-maximized="1" />
  <metadata
     id="metadata5">
    <rdf:RDF>
      <cc:Work
         rdf:about="">
        <dc:format>image/svg+xml</dc:format>
        <dc:type
           rdf:resource="http://purl.org/dc/dcmitype/StillImage" />
        <dc:title />
      </cc:Work>
    </rdf:RDF>
  </metadata>
  <g
     inkscape:label="Layer 1"
     inkscape:groupmode="layer"
     id="layer1"
     transform="translate(-14.161505,-64.116267)">
    <g
       id="g1069"
       transform="matrix(0.35277779,0,0,0.35277779,14.161505,64.116267)">
      <path
         id="path1031"
         d="M 486.21094,52.769531 V 123.57813 H 397.42969 V 52.769531 c -0.043,-24.472656 19.76562,-44.347656 44.24218,-44.390625 h 0.21875 c 24.44922,0 44.28125,19.800782 44.32032,44.25 z m 0,0"
         inkscape:connector-curvature="0"
         style="fill:#ffaacc;fill-opacity:1" />
      <path
         id="path1033"
         d="M 122.46875,8.378906 H 441.67187 C 417.19531,8.421875 397.38672,28.296875 397.42969,52.769531 V 378.03125 c -0.0391,32.92187 -26.73828,59.58594 -59.66016,59.58984 h -0.17969 c -1.3789,0 -2.73828,-0.0508 -4.10156,-0.15234 C 302.21094,435.28516 277.96484,409.25391 278,377.89844 V 339.32812 H 78.078125 v -0.52734 L 80.191406,50.128906 c 0,-23.25 19.027344,-41.75 42.277344,-41.75 z M 296.42187,149.53125 V 92.46875 L 233.51172,61.570312 170.60937,92.378906 v 57.152344 c 0,14.61719 9.46875,32.52734 21.5625,40.77734 L 233.51172,218.5 274.85156,190.30859 c 12.08985,-8.25 21.57031,-26.16015 21.57031,-40.77734 z m 0,0"
         inkscape:connector-curvature="0"
         style="fill:#ffffff" />
      <path
         id="path1035"
         d="m 333.48828,437.46875 -0.008,0.15234 H 67.449219 C 34.527344,437.61719 7.832031,410.95312 7.789062,378.03125 V 339.32812 H 278 v 38.57032 c -0.0352,31.35547 24.21094,57.38672 55.48828,59.57031 z m 0,0"
         inkscape:connector-curvature="0"
         style="fill:#ffaacc" />
      <path
         id="path1037"
         d="m 296.42187,92.46875 v 57.0625 c 0,14.61719 -9.48046,32.52734 -21.57031,40.77734 L 233.51172,218.5 192.17187,190.30859 c -12.09375,-8.25 -21.5625,-26.16015 -21.5625,-40.77734 V 92.378906 l 62.90235,-30.808594 z m 0,0"
         inkscape:connector-curvature="0"
         style="fill:#59cfff;fill-opacity:1" />
      <g
         id="g1049"
         style="fill:#083863">
        <path
           id="path1039"
           d="M 441.82031,0 H 122.46875 C 94.746094,0 72.191406,22.34375 72.191406,49.714844 L 70.136719,331 H 7.789062 C 3.371094,331 0,334.91016 0,339.32812 v 38.71094 c 0,36.22266 29,65.8711 64,67.5 V 446 h 269 v -0.51953 c 2,0.0859 3.21875,0.51953 4.58984,0.51953 h 0.17969 C 375.03125,446 405,415.30078 405,378.03125 V 132 h 81.21094 C 490.62891,132 494,128 494,123.57813 V 52.617188 C 494,23.8125 470.69141,0 441.82031,0 Z M 67.449219,430 C 39,430 16,406.47266 16,378.03125 V 347 h 254 v 30.89062 C 269.97266,398.49219 279.3125,417 294.0625,430 Z M 389,52.769531 V 378.01953 C 389,406.47266 366.22266,430 337.71094,430 h -0.1211 c -1.1914,0 -2.33984,-0.23047 -3.55078,-0.32031 C 307.06641,427.82031 285.96484,404.97656 286,377.89844 v -38.57032 c 0.0234,-4.48046 -3.51953,-8.17187 -8,-8.32812 H 86.136719 L 88.191406,49.773438 C 88.191406,31.164062 103.56641,16 122.46875,16 H 404.10547 C 394.55078,25.871094 389.14453,39.03125 389,52.769531 Z M 478,116 H 405 V 52.757812 C 405.13672,32.546875 421.46094,16.1875 441.67187,16 h 0.21875 C 461.88281,16 478,32.648438 478,52.628906 Z m 0,0"
           inkscape:connector-curvature="0"
           style="fill:#000000;fill-opacity:1" />
        <path
           id="path1041"
           d="m 187.85547,196.91797 41.24609,28.1914 c 2.69141,1.85547 6.2461,1.85547 8.9375,0 l 41.1211,-28.1914 C 293.44531,187.16797 304,166.80078 304,149.53125 v -57.0625 c 0.0859,-3.015625 -1.57422,-5.808594 -4.26172,-7.179688 L 236.93359,54.390625 c -2.20703,-1.09375 -4.79297,-1.09375 -6.99609,0 l -62.67578,30.808594 c -2.69141,1.367187 -4.35156,4.164062 -4.26172,7.179687 v 57.152344 c 0,17.26953 10.57422,37.64062 24.85547,47.38672 z M 179,97.367188 233.48828,70.480469 288,97.453125 v 52.078125 c 0,12.03906 -7.89844,27.36719 -17.86719,34.16797 l -36.73437,25.11719 -36.57813,-25.11719 C 186.85937,176.89844 179,161.57422 179,149.53125 Z m 0,0"
           inkscape:connector-curvature="0"
           style="fill:#000000" />
        <path
           id="path1043"
           d="m 219.96484,161.60156 c 1.49219,1.51953 3.53125,2.38672 5.66407,2.39844 h 0.0195 c 2.125,-0.008 4.16015,-0.85938 5.66015,-2.36719 l 31.82813,-31.83203 c 3.1289,-3.125 3.1289,-8.1914 0.008,-11.32031 -3.125,-3.125 -8.19141,-3.12891 -11.32031,-0.004 l -26.14453,26.13281 -10.44532,-10.54687 c -3.11328,-3.14063 -8.17968,-3.16406 -11.32031,-0.0508 -3.14062,3.11328 -3.16015,8.17969 -0.0508,11.32031 z m 0,0"
           inkscape:connector-curvature="0"
           style="fill:#000000" />
        <path
           id="path1045"
           d="m 141,264 h 192 c 4.41797,0 8,-3.58203 8,-8 0,-4.41797 -3.58203,-8 -8,-8 H 141 c -4.41797,0 -8,3.58203 -8,8 0,4.41797 3.58203,8 8,8 z m 0,0"
           inkscape:connector-curvature="0"
           style="fill:#000000" />
        <path
           id="path1047"
           d="m 141,301 h 192 c 4.41797,0 8,-3.58203 8,-8 0,-4.41797 -3.58203,-8 -8,-8 H 141 c -4.41797,0 -8,3.58203 -8,8 0,4.41797 3.58203,8 8,8 z m 0,0"
           inkscape:connector-curvature="0"
           style="fill:#000000" />
      </g>
    </g>
  </g>
</svg>
