<?xml version="1.0" encoding="UTF-8" standalone="no"?>
<svg
   xmlns:dc="http://purl.org/dc/elements/1.1/"
   xmlns:cc="http://creativecommons.org/ns#"
   xmlns:rdf="http://www.w3.org/1999/02/22-rdf-syntax-ns#"
   xmlns:svg="http://www.w3.org/2000/svg"
   xmlns="http://www.w3.org/2000/svg"
   xmlns:sodipodi="http://sodipodi.sourceforge.net/DTD/sodipodi-0.dtd"
   xmlns:inkscape="http://www.inkscape.org/namespaces/inkscape"
   width="135.46318mm"
   height="127.4706mm"
   viewBox="0 0 135.46319 127.47061"
   version="1.1"
   id="svg8"
   sodipodi:docname="rice.svg"
   inkscape:version="1.0 (6e3e5246a0, 2020-05-07)">
  <defs
     id="defs2" />
  <sodipodi:namedview
     id="base"
     pagecolor="#ffffff"
     bordercolor="#666666"
     borderopacity="1.0"
     inkscape:pageopacity="0.0"
     inkscape:pageshadow="2"
     inkscape:zoom="0.4382048"
     inkscape:cx="160.40815"
     inkscape:cy="108.3926"
     inkscape:document-units="mm"
     inkscape:current-layer="layer1"
     inkscape:document-rotation="0"
     showgrid="false"
     inkscape:window-width="1366"
     inkscape:window-height="709"
     inkscape:window-x="0"
     inkscape:window-y="22"
     inkscape:window-maximized="1" />
  <metadata
     id="metadata5">
    <rdf:RDF>
      <cc:Work
         rdf:about="">
        <dc:format>image/svg+xml</dc:format>
        <dc:type
           rdf:resource="http://purl.org/dc/dcmitype/StillImage" />
        <dc:title />
      </cc:Work>
    </rdf:RDF>
  </metadata>
  <g
     inkscape:label="Layer 1"
     inkscape:groupmode="layer"
     id="layer1"
     transform="translate(-37.501599,-66.375581)">
    <g
       id="g4110"
       transform="matrix(0.26458333,0,0,0.26458333,37.501478,58.495674)">
      <path
         id="path3986"
         d="m 494.921,276.895 v 42.667 h -435.2 v -38.4 c -0.141,-4.539 3.399,-8.345 7.936,-8.533 4.52,-0.197 8.03,-4.012 7.851,-8.533 v -3.328 c -0.082,-8.413 3.887,-16.352 10.667,-21.333 l 9.557,-6.912 c 2.27,-1.681 3.601,-4.344 3.584,-7.168 -0.074,-7.451 3.872,-14.365 10.325,-18.091 l 15.957,-8.619 c 3.349,-1.851 5.413,-5.39 5.376,-9.216 -0.041,-5.018 1.819,-9.865 5.205,-13.568 3.207,-3.553 7.758,-5.596 12.544,-5.632 8.696,-0.188 16.504,-5.371 20.053,-13.312 1.125,-2.435 2.622,-4.681 4.437,-6.656 l 7.083,-7.68 c 0.185,-0.243 0.418,-0.446 0.683,-0.597 1.792,-1.711 4.178,-2.659 6.656,-2.645 2.045,-0.01 4.043,0.617 5.717,1.792 1.203,0.89 2.524,1.608 3.925,2.133 2.286,1.005 4.756,1.528 7.253,1.536 6.868,-0.103 13.195,-3.75 16.725,-9.643 1.852,-3.175 4.793,-5.57 8.277,-6.741 4.912,1.094 9.537,3.217 13.568,6.229 2.552,1.915 5.408,3.386 8.448,4.352 5.395,1.835 11.245,1.835 16.64,0 h 0.085 c 6.125,1.993 12.746,1.843 18.773,-0.427 h 41.045 l 0.597,0.341 c 5.107,3.719 11.262,5.721 17.579,5.717 h 12.459 c 4.072,0.018 8.1,0.829 11.861,2.389 l 23.125,24.064 0.256,1.024 1.195,6.144 c 1.747,11.47 11.443,20.052 23.04,20.395 1.932,0.002 3.855,-0.256 5.717,-0.768 2.099,-0.507 4.314,-0.127 6.123,1.052 1.809,1.179 3.051,3.052 3.435,5.177 l 3.84,16.128 c 1.047,5.53 5.808,9.581 11.435,9.728 h 10.581 c 3.271,0.124 6.358,1.542 8.583,3.942 2.225,2.401 3.404,5.587 3.279,8.858 v 8.533 c -0.125,3.271 1.054,6.457 3.279,8.857 2.225,2.401 5.312,3.819 8.583,3.943 3.271,0.124 6.358,1.542 8.583,3.942 2.226,2.402 3.406,5.588 3.28,8.859 z"
         style="fill:#cccccc" />
      <path
         id="path3988"
         d="m 460.788,276.895 v 42.667 h -435.2 v -38.4 c -0.141,-4.539 3.399,-8.345 7.936,-8.533 4.52,-0.197 8.03,-4.012 7.851,-8.533 v -3.328 c -0.082,-8.413 3.887,-16.352 10.667,-21.333 l 9.557,-6.912 c 2.27,-1.681 3.601,-4.344 3.584,-7.168 -0.074,-7.451 3.872,-14.365 10.325,-18.091 l 15.957,-8.619 c 3.349,-1.851 5.413,-5.39 5.376,-9.216 -0.041,-5.018 1.819,-9.865 5.205,-13.568 3.207,-3.553 7.758,-5.596 12.544,-5.632 8.696,-0.188 16.504,-5.371 20.053,-13.312 1.125,-2.435 2.622,-4.681 4.437,-6.656 l 7.083,-7.68 c 1.89,-2.053 4.548,-3.228 7.339,-3.243 2.045,-0.01 4.043,0.617 5.717,1.792 1.918,1.404 4.092,2.419 6.4,2.987 1.547,0.477 3.16,0.707 4.779,0.683 3.615,0.008 7.15,-1.062 10.155,-3.072 2.846,2.007 6.245,3.08 9.728,3.072 6.677,-0.148 12.779,-3.815 16.043,-9.643 1.582,-2.749 3.963,-4.951 6.827,-6.315 4.367,1.229 8.493,3.192 12.203,5.803 7.529,5.567 17.272,7.186 26.197,4.352 0.466,-0.103 0.923,-0.246 1.365,-0.427 h 41.045 l 0.597,0.341 c 5.107,3.719 11.262,5.721 17.579,5.717 h 12.459 c 4.072,0.018 8.1,0.829 11.861,2.389 l 23.125,24.064 0.256,1.024 1.195,6.144 c 1.747,11.47 11.443,20.052 23.04,20.395 1.932,0.002 3.855,-0.256 5.717,-0.768 0.144,-0.02 0.286,-0.049 0.427,-0.085 h 0.085 c 1.688,-0.362 3.45,-0.089 4.949,0.768 2.098,1.175 3.59,3.196 4.096,5.547 l 3.84,16.128 c 1.046,5.53 5.808,9.582 11.435,9.728 h 10.581 c 3.271,0.124 6.358,1.542 8.583,3.942 2.225,2.401 3.404,5.587 3.279,8.858 v 8.533 c -0.125,3.271 1.054,6.457 3.279,8.857 2.225,2.401 5.312,3.819 8.583,3.943 3.271,0.124 6.358,1.542 8.583,3.942 2.224,2.401 3.403,5.587 3.278,8.858 z"
         style="fill:#ffffff" />
      <path
         id="path3990"
         d="m 469.321,276.809 v 42.667 h -8.533 l -200.533,0.085 -209.067,0.085 v -38.4 c -0.232,-4.444 3.154,-8.248 7.595,-8.533 4.441,-0.285 7.827,-4.089 7.595,-8.533 v -3.328 c -0.128,-8.325 3.665,-16.226 10.24,-21.333 l 9.131,-6.912 c 2.194,-1.726 3.456,-4.377 3.413,-7.168 -0.095,-7.369 3.699,-14.243 9.984,-18.091 l 15.36,-8.619 c 3.258,-1.91 5.219,-5.441 5.12,-9.216 -0.051,-4.973 1.708,-9.795 4.949,-13.568 3.048,-3.523 7.459,-5.573 12.117,-5.632 8.47,-0.248 15.998,-5.467 19.2,-13.312 1.129,-2.393 2.563,-4.631 4.267,-6.656 l 5.461,-6.229 1.365,-1.536 c 1.8,-2.029 4.371,-3.206 7.083,-3.243 1.964,0.005 3.876,0.632 5.461,1.792 0.322,0.231 0.665,0.431 1.024,0.597 0.171,0.085 0.256,0.171 0.427,0.256 2.747,1.852 5.988,2.834 9.301,2.816 2.416,0 4.804,-0.524 6.997,-1.536 3.798,-1.676 6.965,-4.515 9.045,-8.107 1.582,-2.749 3.963,-4.951 6.827,-6.315 1.814,-0.855 3.797,-1.292 5.803,-1.28 h 3.243 c 2.472,-0.016 4.936,0.27 7.339,0.853 4.912,1.094 9.537,3.217 13.568,6.229 2.552,1.915 5.408,3.386 8.448,4.352 5.395,1.835 11.245,1.835 16.64,0 h 0.085 c 0.439,-0.104 0.867,-0.246 1.28,-0.427 h 39.509 l 0.512,0.341 c 4.859,3.695 10.792,5.703 16.896,5.717 h 11.947 c 3.934,0.018 7.823,0.831 11.435,2.389 l 22.187,23.979 0.256,1.024 1.109,6.144 c 1.362,9.231 7.898,16.863 16.811,19.627 h 0.085 c 1.6,0.511 3.27,0.77 4.949,0.768 h 0.427 c 1.847,-0.01 3.684,-0.268 5.461,-0.768 2.056,-0.477 4.218,-0.077 5.966,1.105 1.749,1.182 2.926,3.038 3.25,5.124 l 3.584,16.128 c 0.944,5.451 5.566,9.504 11.093,9.728 h 10.069 c 6.684,0.393 11.794,6.114 11.435,12.8 v 8.533 c -0.36,6.686 4.75,12.407 11.435,12.8 6.668,0.406 11.747,6.136 11.349,12.803 z"
         style="fill:#ffffff;fill-opacity:1" />
      <path
         id="path3992"
         d="M 497.407,306.761 H 48.715 c -2.505,0.177 -4.69,1.767 -5.627,4.097 -0.937,2.33 -0.463,4.99 1.222,6.852 l 2.999,7.875 c 21.932,58.75 62.056,108.96 114.523,143.308 v 0 18.03 c -0.296,8.583 6.411,15.786 14.993,16.103 h 188.204 c 8.582,-0.317 15.288,-7.52 14.993,-16.103 v -18.03 l 0.062,-0.04 C 433.719,434.762 475.256,384.646 498.8,325.615 l 3.012,-7.906 c 1.685,-1.862 2.16,-4.522 1.222,-6.852 -0.938,-2.328 -3.122,-3.919 -5.627,-4.096 z"
         style="fill:#87aade" />
      <path
         id="path3994"
         d="M 471.794,306.761 H 23.102 c -2.505,0.177 -4.69,1.767 -5.627,4.097 -0.937,2.33 -0.463,4.99 1.222,6.852 l 2.999,7.875 c 21.932,58.75 62.056,108.96 114.524,143.308 v 0 18.03 c -0.296,8.583 6.411,15.786 14.993,16.103 h 192.47 c 8.582,-0.317 15.288,-7.52 14.993,-16.103 v -18.03 l 0.062,-0.04 c 52.427,-34.342 92.523,-84.524 114.449,-143.238 l 3.012,-7.906 c 1.685,-1.862 2.16,-4.522 1.222,-6.852 -0.938,-2.328 -3.122,-3.919 -5.627,-4.096 z"
         style="fill:#ffffff" />
      <g
         id="g4010"
         style="fill:#aaccff">
        <path
           id="path4006"
           d="M 472.031,306.761 H 39.958 c -2.458,0.264 -4.563,1.878 -5.456,4.183 -0.893,2.305 -0.425,4.916 1.214,6.767 l 2.888,7.875 c 20.705,58.217 59.31,108.383 110.282,143.308 v 0 18.03 c -0.434,8.424 6.016,15.619 14.437,16.103 h 185.342 c 8.422,-0.485 14.872,-7.679 14.437,-16.103 v -18.03 l 0.06,-0.04 c 50.933,-34.918 89.511,-85.057 110.211,-143.238 l 2.9,-7.906 c 1.638,-1.851 2.107,-4.462 1.214,-6.767 -0.893,-2.305 -2.998,-3.918 -5.456,-4.182 z"
           style="fill:#aaccff" />
        <path
           id="path4008"
           d="m 349.861,426.228 0.037,-0.021 c 33.309,-20.404 59.977,-50.041 76.763,-85.312"
           style="fill:#aaccff" />
      </g>
      <path
         id="path4012"
         d="M 359.359,511.561 H 152.63 c -13.599,-0.017 -24.618,-11.038 -24.633,-24.638 V 473.681 C 98.83,455.57 72.909,432.692 51.314,406.002 c -2.966,-3.663 -2.401,-9.038 1.263,-12.004 3.663,-2.966 9.038,-2.401 12.004,1.263 21.364,26.409 47.205,48.856 76.342,66.317 2.57,1.542 4.142,4.32 4.142,7.317 v 18.029 c 0.004,4.178 3.388,7.565 7.567,7.571 h 206.729 c 4.179,-0.004 7.566,-3.391 7.571,-7.571 v -18.029 c 0,-2.853 1.426,-5.518 3.8,-7.1 53.863,-32.413 95.873,-81.291 119.825,-139.412 l 2.9,-7.088 H 18.529 l 2.892,7.063 c 0.904,2.213 1.836,4.414 2.796,6.604 1.865,4.315 -0.11,9.325 -4.418,11.207 -4.307,1.882 -9.325,-0.073 -11.224,-4.373 -1.008,-2.308 -1.992,-4.633 -2.95,-6.975 L 2.875,322.1 c -3.325,-4.572 -3.803,-10.623 -1.238,-15.66 2.565,-5.037 7.739,-8.21 13.392,-8.211 h 481.925 c 5.654,-10e-4 10.83,3.17 13.396,8.208 2.566,5.038 2.088,11.09 -1.238,15.662 l -2.758,6.746 c -24.651,59.877 -67.441,110.526 -122.358,144.833 v 13.246 c -0.016,13.6 -11.037,24.621 -24.637,24.637 z" />
      <path
         id="path4014"
         d="m 34.121,375.028 c -2.27,0.022 -4.453,-0.87 -6.058,-2.475 -1.605,-1.605 -2.497,-3.788 -2.475,-6.058 0.012,-1.116 0.243,-2.219 0.679,-3.246 0.434,-1.033 1.041,-1.984 1.795,-2.813 3.421,-3.158 8.695,-3.158 12.117,0 0.752,0.83 1.358,1.781 1.792,2.813 0.479,1.014 0.713,2.126 0.683,3.246 -0.034,2.259 -0.918,4.422 -2.475,6.059 -1.627,1.57 -3.796,2.456 -6.058,2.474 z" />
      <path
         id="path4016"
         d="m 375.492,434.744 c -3.806,0.008 -7.156,-2.506 -8.212,-6.162 -1.056,-3.656 0.438,-7.57 3.662,-9.592 l 0.033,-0.021 c 31.848,-19.454 57.36,-47.738 73.438,-81.417 1.846,-4.335 6.856,-6.354 11.192,-4.508 4.335,1.846 6.354,6.856 4.508,11.192 -17.571,36.934 -45.483,67.976 -80.35,89.358 -1.297,0.754 -2.771,1.151 -4.271,1.15 z" />
      <path
         id="path4018"
         d="M 247.463,477.428 H 136.53 c -4.713,0 -8.533,-3.82 -8.533,-8.533 0,-4.713 3.82,-8.533 8.533,-8.533 h 110.933 c 4.713,0 8.533,3.82 8.533,8.533 0,4.713 -3.82,8.533 -8.533,8.533 z" />
      <path
         id="path4020"
         d="m 375.463,477.428 h -25.6 c -4.713,0 -8.533,-3.82 -8.533,-8.533 0,-4.713 3.82,-8.533 8.533,-8.533 h 25.6 c 4.713,0 8.533,3.82 8.533,8.533 0,4.713 -3.82,8.533 -8.533,8.533 z" />
      <path
         id="path4022"
         d="m 25.588,315.295 c -4.713,0 -8.533,-3.821 -8.533,-8.533 v -25.6 c 0.009,-9.422 7.645,-17.057 17.067,-17.067 v -3.329 c -0.005,-11.431 5.714,-22.105 15.233,-28.433 l 10.313,-6.904 c 0.035,-10.887 6.166,-20.836 15.875,-25.762 l 17.313,-8.654 c 0.614,-0.288 1.004,-0.906 1,-1.584 0.02,-15.309 12.425,-25.714 27.733,-25.733 5.903,-0.039 11.291,-3.365 13.971,-8.625 1.652,-3.258 3.798,-6.24 6.363,-8.842 l 7.683,-7.683 c 6.687,-6.357 16.809,-7.433 24.683,-2.625 2.902,1.979 6.473,2.72 9.923,2.059 3.45,-0.661 6.494,-2.669 8.46,-5.58 4.717,-7.124 12.702,-11.397 21.246,-11.371 h 3.671 c 10.017,0.008 19.811,2.961 28.162,8.492 6.538,4.4 14.753,5.503 22.221,2.983 4.455,-1.535 9.311,0.832 10.846,5.288 1.535,4.455 -0.832,9.311 -5.287,10.846 -12.495,4.247 -26.256,2.434 -37.225,-4.904 -5.553,-3.67 -12.061,-5.63 -18.717,-5.638 h -3.671 c -2.831,-0.011 -5.477,1.403 -7.042,3.763 -4.428,6.674 -11.331,11.311 -19.184,12.886 -7.853,1.575 -16.01,-0.04 -22.67,-4.491 -1.09,-0.549 -2.401,-0.409 -3.35,0.358 l -7.683,7.683 c -1.302,1.345 -2.394,2.879 -3.237,4.55 -5.618,10.945 -16.861,17.852 -29.162,17.917 -5.884,0.017 -10.649,2.783 -10.667,8.667 -0.015,7.166 -4.085,13.706 -10.508,16.883 l -17.162,8.583 c -3.923,2.023 -6.408,6.046 -6.462,10.459 -0.009,5.709 -2.852,11.04 -7.588,14.229 l -10.367,6.941 c -4.774,3.166 -7.645,8.513 -7.646,14.242 v 3.329 c -0.009,9.422 -7.645,17.057 -17.067,17.067 v 25.6 c -0.002,4.712 -3.822,8.533 -8.535,8.533 z"
         sodipodi:nodetypes="sscccccccccccccscccccccccccscccccccccccccccs" />
      <path
         id="path4024"
         d="m 494.921,315.295 c -2.263,10e-4 -4.434,-0.898 -6.035,-2.499 -1.6,-1.6 -2.499,-3.771 -2.499,-6.035 v -29.867 c -0.003,-2.355 -1.912,-4.264 -4.267,-4.267 -11.777,-0.012 -21.321,-9.556 -21.333,-21.333 v -8.533 c -0.003,-2.355 -1.912,-4.264 -4.267,-4.267 h -11.35 c -9.837,0.035 -18.402,-6.709 -20.675,-16.279 l -4.067,-16.009 c -2.688,0.633 -5.439,0.959 -8.2,0.971 -16.176,-0.003 -30.104,-11.418 -33.283,-27.279 l -1.262,-6.05 c -1.212,-4.622 1.475,-9.37 6.063,-10.708 2.139,-0.628 4.441,-0.364 6.382,0.734 1.941,1.098 3.354,2.934 3.918,5.091 0.033,0.125 0.321,1.275 0.346,1.4 l 1.279,6.142 c 0.888,4.54 3.605,8.514 7.513,10.99 3.908,2.476 8.662,3.234 13.146,2.098 4.392,-1.086 9.036,-0.39 12.917,1.938 3.91,2.332 6.709,6.149 7.758,10.579 l 4.067,16.021 c 0.422,1.926 2.129,3.298 4.1,3.296 h 11.35 c 11.777,0.012 21.321,9.556 21.333,21.333 v 8.533 c 0.003,2.355 1.911,4.264 4.267,4.267 11.777,0.012 21.321,9.556 21.333,21.333 v 29.867 c 0.001,2.263 -0.898,4.434 -2.499,6.035 -1.601,1.599 -3.771,2.498 -6.035,2.498 z" />
      <g
         id="g4034" />
      <g
         id="g4036" />
      <g
         id="g4038" />
      <g
         id="g4040" />
      <g
         id="g4042" />
      <g
         id="g4044" />
      <g
         id="g4046" />
      <g
         id="g4048" />
      <g
         id="g4050" />
      <g
         id="g4052" />
      <g
         id="g4054" />
      <g
         id="g4056" />
      <g
         id="g4058" />
      <g
         id="g4060" />
      <g
         id="g4062" />
      <g
         id="038---Frozen-Chicken"
         fill-rule="nonzero"
         transform="matrix(21.718143,-4.7201678,4.7201678,21.718143,68.548729,-1269.7116)"
         style="fill:none">
        <path
           id="path4204"
           d="m -8.6854107,65.270958 -0.083709,-0.0074 c 0,0 0.062472,0.01737 0.1351489,0.04551 z"
           fill="#783e22"
           style="stroke-width:0.23444" />
        <path
           id="path4206"
           d="M 0.62431509,65.157717 C -0.68834809,64.457587 -3.0433371,65.019834 -4.0574062,66.10838 l -0.013238,0.02482 -0.1675579,-0.08936 c -0.5407913,-0.309604 -1.1769005,-0.408498 -1.7861612,-0.277689 -0.099785,0.324109 -0.2608181,0.626067 -0.4743688,0.889505 0.2900504,-0.26823 0.6443062,-0.457221 1.0286215,-0.548756 0.6274328,-0.150895 1.2888285,-0.05582 1.8483561,0.265689 l 0.1675579,0.08936 0.013238,-0.02482 c 0.9239704,-0.990887 2.3618366,-1.312217 3.61972146,-0.808923 -0.09312919,-0.0651 0.54560592,-0.416635 0.44555223,-0.470489 z"
           fill="#783e22"
           sodipodi:nodetypes="cccccccccccc"
           style="stroke-width:0.23444" />
        <path
           id="path4202"
           d="m 0.53641977,68.15636 c -0.0888106,0.02703 -0.17968937,0.05296 -0.27153398,0.07572 -0.0626843,-0.09983 -1.48612749,0.598717 -1.56022209,0.507035 -1.3243006,0.892866 -2.4358545,0.18214 -3.3506014,-0.478191 -0.1349511,-0.09742 0.088372,-0.761334 -0.2225856,-0.44696 l -0.013238,0.02482 -0.1675579,-0.08936 c -0.559528,-0.321512 -1.2209233,-0.416584 -1.8483563,-0.26569 -0.3843151,0.09153 -0.7385708,0.280526 -1.0286213,0.548757 0.2195218,-0.268897 0.3844087,-0.578083 0.4854006,-0.910191 0.073392,-0.243407 0.076206,-0.502644 0.00811,-0.747587 -0.084388,-0.247259 -0.2390473,-0.464545 -0.4450395,-0.62525 -0.2688972,-0.219522 -0.5780825,-0.384409 -0.9101911,-0.485401 0.3903054,0.06114 0.7897803,0.02071 1.1599202,-0.117392 0.6051004,-0.224264 1.1013665,-0.671705 1.3868791,-1.25043 0.7829836,-1.498092 2.5635794,-2.883957 4.4171513,-3.455079 2.75836221,-0.837858 4.839808,0.415642 5.488579,2.547092 0.6487704,2.131449 -0.3707005,4.327073 -3.12809739,5.168103 z"
           fill="#a0522d"
           sodipodi:nodetypes="cccaccccccccccccsc"
           style="fill:#cc8033;fill-opacity:1;stroke-width:0.23444" />
        <path
           id="path4208"
           d="M 3.5729906,63.174827 C 3.2602675,62.058071 2.4593251,61.142618 1.394009,60.684317 c 0.7555743,0.515922 1.3068773,1.279892 1.5583967,2.159555 0.6478053,2.128277 -0.5861858,4.831587 -3.33227406,5.681304 0.0417867,0.0462 -0.28523062,0.108916 -0.24661583,0.156078 0.0742831,0.08929 0.0842951,-0.07949 0.14762108,0.01787 0.0918444,-0.02276 0.18272339,-0.04869 0.27153376,-0.07572 2.76056875,-0.84199 4.42909045,-3.317128 3.78031995,-5.448577 z"
           fill="#783e22"
           sodipodi:nodetypes="cccccccc"
           style="stroke-width:0.23444" />
        <g
           fill="#000000"
           id="g4238"
           transform="matrix(0.23443947,0,0,0.23443947,-10.548016,45.872263)">
          <path
             id="path4216"
             d="M 60.559721,69.256114 C 55.699246,62.002927 48.532425,57.640869 36.964882,61.161799 28.847308,63.632628 21.03102,69.788741 17.511215,76.388845 c -1.101849,2.241733 -3.020487,3.976287 -5.361622,4.847217 -1.38968,0.519717 -2.8873349,0.683359 -4.3564573,0.476011 -0.4613101,-0.131955 -0.951325,0.08234 -1.167632,0.510623 -0.2598844,0.487318 -0.075513,1.093045 0.4118047,1.352929 l 0.211768,0.112935 c 0.6416502,0.196382 1.2601617,0.461635 1.8447297,0.791122 L 0.38564847,87.12288 c -0.91042199,-2.134114 -3.28348417,-3.238363 -5.50242857,-2.560425 -2.3983766,0.730234 -3.7508475,3.266298 -3.0210091,5.664795 0.3848785,1.314051 1.3434672,2.383507 2.607733,2.909335 -0.087137,0.142248 -0.1657036,0.289571 -0.2352811,0.441183 -0.9348694,1.759975 -0.6126952,3.923858 0.7943353,5.335155 1.4070307,1.411297 3.5699266,1.740017 5.33272547,0.810487 C 2.1245219,98.793875 3.0750475,96.823423 2.705289,94.865165 l 8.748746,-2.655553 c -0.309593,0.594339 -0.67181,1.159746 -1.082304,1.689444 -0.04773,0.06867 -0.08721,0.142702 -0.117641,0.220592 -0.193188,0.36141 -0.146317,0.804111 0.118269,1.117055 0.08203,0.0965 0.181636,0.176549 0.293536,0.235874 0.24064,0.127199 0.522754,0.150734 0.781179,0.06527 0.176758,-0.05623 0.334394,-0.160512 0.455286,-0.30119 1.099625,-1.003144 2.433522,-1.714135 3.87935,-2.067762 2.293536,-0.549493 4.708861,-0.240955 6.790614,0.867447 2.033973,3.175509 7.789979,5.328236 12.277406,5.569924 5.903144,0.317936 11.863214,-2.366215 16.8443,-5.550078 3.441237,-2.199605 6.35317,-5.397944 8.366185,-8.951554 1.510676,-2.666825 2.538953,-5.773922 2.533926,-8.838896 -0.004,-2.432958 -0.966811,-5.416453 -2.03442,-7.009624 z M 1.2134763,93.242268 c -0.2744341,0.0839 -0.4995988,0.281651 -0.6182192,0.542959 -0.120716,0.260424 -0.1237097,0.560163 -0.00821,0.822942 l 0.046474,0.104116 c 0.033532,0.08588 0.080593,0.167645 0.1053014,0.24882 0.4008913,1.344124 -0.35448703,2.760559 -1.69402371,3.176521 -1.33996669,0.362014 -2.73059099,-0.379599 -3.17652069,-1.694024 -0.4008914,-1.344124 0.354487,-2.760559 1.6940238,-3.17652 0.5256511,-0.161708 0.82207,-0.717533 0.6634927,-1.244138 -0.1617078,-0.525651 -0.7175329,-0.82207 -1.2441373,-0.663492 -1.3447071,0.406761 -2.7651086,-0.350733 -3.1765206,-1.694024 -0.4008914,-1.344124 0.354487,-2.760559 1.6940238,-3.176521 1.3447071,-0.406761 2.7651086,0.350732 3.1765206,1.694024 0.023952,0.08696 0.041065,0.175662 0.051184,0.265293 l 0.019415,0.112352 c 0.041917,0.282357 0.2098666,0.53037 0.45649049,0.674104 0.2492986,0.132194 0.54284449,0.152908 0.80823698,0.05703 L 11.159142,85.898444 c 0.515877,0.493828 0.900961,1.108104 1.120642,1.787614 0.191289,0.685627 0.218314,1.406683 0.07888,2.104704 z M 23.902865,92.43395 c -2.614788,-1.495738 -5.705421,-1.926265 -8.629447,-1.202098 -0.459489,0.107563 -0.911434,0.245126 -1.352929,0.411805 0.571632,-1.440503 0.666624,-3.026273 0.271043,-4.524714 -0.504164,-1.464864 -1.469218,-2.727034 -2.750695,-3.597566 0.457594,-0.114503 0.909141,-0.251944 1.352929,-0.411804 2.830013,-1.030435 5.155772,-3.109084 6.496299,-5.806075 3.240993,-6.204801 10.562002,-11.899723 18.246638,-14.238774 10.444025,-3.156779 19.350617,0.947075 22.171479,10.214639 2.820862,9.267564 -6.304696,16.656037 -13.244585,21.33761 -3.824787,2.58016 -9.075679,3.052847 -13.637693,2.364183 -3.300893,-0.49829 -5.419208,-1.395754 -8.923039,-4.547206 z"
             sodipodi:nodetypes="ssccccscccccccssccccccccccaaaascccccccccccccccccccccccccccccsaac" />
          <path
             id="path4218"
             d="m 52.115121,69.241352 c 0.347175,-0.104353 0.612306,-0.385995 0.695522,-0.738833 0.08321,-0.352841 -0.02813,-0.72327 -0.292088,-0.971756 -0.263959,-0.248486 -0.640434,-0.337276 -0.987609,-0.232923 -0.261242,0.07429 -0.481027,0.251649 -0.608832,0.4913 -0.127805,0.23965 -0.152633,0.520977 -0.06878,0.779308 0.07547,0.25831 0.251858,0.475302 0.489311,0.601935 0.237453,0.126632 0.515922,0.152216 0.772473,0.07097 z" />
          <path
             id="path4220"
             d="m 48.329767,67.22264 c 0.523729,-0.165859 0.815593,-0.723148 0.653662,-1.248102 -0.161935,-0.524955 -0.717024,-0.820982 -1.243177,-0.66298 -0.526156,0.158 -0.826329,0.710858 -0.672269,1.238179 0.07547,0.25831 0.251859,0.475302 0.489311,0.601934 0.237453,0.126633 0.515923,0.152216 0.772473,0.07097 z" />
          <path
             id="path4222"
             d="m 43.836215,66.446891 c 0.520751,-0.169039 0.808751,-0.725412 0.646119,-1.248196 -0.162638,-0.522786 -0.715435,-0.81759 -1.240178,-0.661381 -0.524745,0.156209 -0.826309,0.705349 -0.676549,1.231967 0.07429,0.261242 0.251649,0.481027 0.4913,0.608832 0.239651,0.127805 0.520978,0.152633 0.779308,0.06878 z" />
          <path
             id="path4224"
             d="m 42.224497,68.023997 c -0.258311,0.07547 -0.475302,0.251859 -0.601934,0.489312 -0.126633,0.237453 -0.152217,0.515922 -0.07097,0.772473 0.07547,0.258311 0.251859,0.475301 0.489312,0.601934 0.237453,0.126632 0.515922,0.152217 0.772473,0.07097 0.53425,-0.162615 0.835519,-0.727535 0.672903,-1.261785 -0.162615,-0.53425 -0.727534,-0.835519 -1.261784,-0.672904 z" />
          <path
             id="path4226"
             d="m 44.965248,73.531563 c 0.25831,-0.07547 0.475301,-0.251859 0.601934,-0.489312 0.126632,-0.237452 0.152217,-0.515921 0.07097,-0.772472 -0.07547,-0.258311 -0.251859,-0.475302 -0.489312,-0.601934 -0.237453,-0.126633 -0.515922,-0.152217 -0.772473,-0.07097 -0.345599,0.105193 -0.608826,0.386771 -0.690524,0.738665 -0.0817,0.351894 0.03054,0.720644 0.29444,0.967344 0.263899,0.246701 0.639383,0.33384 0.984965,0.228679 z" />
          <path
             id="path4228"
             d="m 46.68746,68.772101 c -0.52075,0.169038 -0.808751,0.725411 -0.646118,1.248195 0.162637,0.522787 0.715434,0.817591 1.240177,0.661381 0.524745,-0.156208 0.82631,-0.705349 0.676549,-1.231967 -0.07429,-0.261241 -0.251649,-0.481027 -0.491299,-0.608832 -0.239651,-0.127804 -0.520978,-0.152633 -0.779309,-0.06878 z" />
          <path
             id="path4230"
             d="m 50.481638,70.795518 c -0.523729,0.165859 -0.815593,0.723148 -0.653662,1.248102 0.161935,0.524955 0.717025,0.820982 1.243177,0.66298 0.526156,-0.157999 0.826328,-0.710857 0.672269,-1.238178 -0.07547,-0.258311 -0.251859,-0.475302 -0.489311,-0.601935 -0.237453,-0.126632 -0.515923,-0.152216 -0.772473,-0.07097 z" />
          <path
             id="path4232"
             d="m 55.236395,72.526554 c 0.25831,-0.07547 0.475301,-0.251859 0.601934,-0.489312 0.126632,-0.237452 0.152217,-0.515921 0.07097,-0.772473 -0.105194,-0.345598 -0.386771,-0.608825 -0.738665,-0.690524 -0.351894,-0.0817 -0.720644,0.03054 -0.967344,0.29444 -0.246702,0.2639 -0.333841,0.639384 -0.22868,0.984965 0.07547,0.258311 0.251859,0.475302 0.489312,0.601935 0.237453,0.126632 0.515922,0.152216 0.772473,0.07097 z" />
          <path
             id="path4234"
             d="m 48.750602,75.550275 c 0.25831,-0.07547 0.475301,-0.251859 0.601934,-0.489312 0.126632,-0.237453 0.152217,-0.515922 0.07097,-0.772473 -0.162616,-0.53425 -0.727535,-0.835519 -1.261785,-0.672903 -0.53425,0.162615 -0.835519,0.727534 -0.672904,1.261784 0.07547,0.258311 0.251859,0.475303 0.489311,0.601935 0.237453,0.126633 0.515923,0.152216 0.772474,0.07097 z" />
          <path
             id="path4236"
             d="m 39.090282,64.72056 c -0.520751,0.169038 -0.808752,0.725412 -0.646119,1.248196 0.162637,0.522786 0.715435,0.817591 1.240177,0.66138 0.524745,-0.156208 0.82631,-0.705348 0.67655,-1.231966 -0.07429,-0.261242 -0.251649,-0.481027 -0.4913,-0.608832 -0.239651,-0.127805 -0.520978,-0.152633 -0.779308,-0.06878 z" />
        </g>
        <path
           id="path4210"
           d="m -7.461858,67.121753 -2.746778,0.836064 c 0.01816,0.03572 0.034,0.07257 0.04744,0.110324 0.0982,0.321181 -0.0069,0.66989 -0.266143,0.883367 -0.259287,0.213476 -0.621679,0.249629 -0.918031,0.09159 -0.296351,-0.158043 -0.468232,-0.479123 -0.435418,-0.813376 0.03281,-0.334253 0.263855,-0.615776 0.585284,-0.71317 -0.321183,0.0982 -0.669891,-0.0069 -0.883367,-0.266143 -0.213477,-0.259287 -0.24963,-0.621678 -0.09159,-0.91803 0.158044,-0.296352 0.479123,-0.468233 0.813376,-0.435418 0.334253,0.03281 0.615776,0.263854 0.71317,0.585283 0.0099,0.03884 0.01724,0.07827 0.02207,0.118046 l 2.742916,-0.848752 c 0.1965585,0.16124 0.3433266,0.374947 0.4232505,0.616288 0.070841,0.246895 0.069413,0.508924 -0.00411,0.755033 z"
           fill="#ffe0b2"
           style="stroke-width:0.23444" />
        <path
           id="path4212"
           d="m -7.4597895,67.122856 c 0.073392,-0.243407 0.076206,-0.502644 0.00811,-0.747586 -0.07911,-0.245145 -0.227035,-0.462375 -0.4261464,-0.625803 l -0.2791186,0.08496 c 0.033803,0.06335 0.061555,0.129744 0.082887,0.198306 0.070932,0.2484 0.068738,0.511985 -0.00632,0.75917 l -2.7455375,0.828756 c 0.01816,0.03572 0.034,0.07257 0.04744,0.110323 0.131296,0.437736 -0.114937,0.899456 -0.551592,1.034308 -0.09164,0.02761 -0.187475,0.03859 -0.282981,0.03242 0.242592,0.318687 0.678177,0.418654 1.035451,0.237635 0.357275,-0.181019 0.534297,-0.591372 0.42081,-0.975473 -0.01344,-0.03775 -0.02929,-0.0746 -0.04744,-0.110323 l 2.7423647,-0.82779 z"
           fill="#dfc49c"
           style="stroke-width:0.23444" />
      </g>
    </g>
  </g>
</svg>
