<?xml version="1.0" encoding="UTF-8" standalone="no"?>
<svg
   xmlns:dc="http://purl.org/dc/elements/1.1/"
   xmlns:cc="http://creativecommons.org/ns#"
   xmlns:rdf="http://www.w3.org/1999/02/22-rdf-syntax-ns#"
   xmlns:svg="http://www.w3.org/2000/svg"
   xmlns="http://www.w3.org/2000/svg"
   xmlns:sodipodi="http://sodipodi.sourceforge.net/DTD/sodipodi-0.dtd"
   xmlns:inkscape="http://www.inkscape.org/namespaces/inkscape"
   inkscape:version="1.0 (6e3e5246a0, 2020-05-07)"
   sodipodi:docname="shirt-vn.svg"
   id="svg8"
   version="1.1"
   viewBox="0 0 135.45235 123.30967"
   height="123.30966mm"
   width="135.45235mm">
  <defs
     id="defs2" />
  <sodipodi:namedview
     inkscape:window-maximized="1"
     inkscape:window-y="22"
     inkscape:window-x="0"
     inkscape:window-height="709"
     inkscape:window-width="1366"
     showgrid="false"
     inkscape:document-rotation="0"
     inkscape:current-layer="layer1"
     inkscape:document-units="mm"
     inkscape:cy="391.66018"
     inkscape:cx="-266.79978"
     inkscape:zoom="0.41737289"
     inkscape:pageshadow="2"
     inkscape:pageopacity="0.0"
     borderopacity="1.0"
     bordercolor="#666666"
     pagecolor="#ffffff"
     id="base" />
  <metadata
     id="metadata5">
    <rdf:RDF>
      <cc:Work
         rdf:about="">
        <dc:format>image/svg+xml</dc:format>
        <dc:type
           rdf:resource="http://purl.org/dc/dcmitype/StillImage" />
        <dc:title></dc:title>
      </cc:Work>
    </rdf:RDF>
  </metadata>
  <g
     transform="translate(-37.507049,-60.603653)"
     id="layer1"
     inkscape:groupmode="layer"
     inkscape:label="Layer 1">
    <path
       id="path3635"
       d="m 92.71566,64.908655 9.97864,20.029108 5.87168,0.124304 10.07106,-21.548433 z"
       style="fill:#cc3340;fill-opacity:1;stroke:#000000;stroke-width:0.264583px;stroke-linecap:butt;stroke-linejoin:miter;stroke-opacity:1" />
    <path
       id="path3633"
       d="m 92.71566,64.908655 9.97864,20.029108 5.87168,0.124304 10.07106,-21.548433 8.2242,6.588955 18.7764,9.344541 -6.28081,10.992863 -0.93206,32.233047 0.20998,58.68792 -67.592124,-0.14072 1.041358,-79.80611 L 69.261017,87.132344 64.281358,81.63621 80.933613,70.244294 Z"
       style="fill:#f53d4c;fill-opacity:1;stroke:#000000;stroke-width:0.264583px;stroke-linecap:butt;stroke-linejoin:miter;stroke-opacity:1" />
    <path
       id="path3637"
       d="m 64.281358,81.63621 -24.080076,30.96329 15.233771,10.97983 16.19362,-5.46516 0.218855,-25.429156 z"
       style="fill:#cc3340;fill-opacity:1;stroke:#000000;stroke-width:0.264583px;stroke-linecap:butt;stroke-linejoin:miter;stroke-opacity:1" />
    <path
       style="fill:#cc3340;fill-opacity:1;stroke:#000000;stroke-width:0.264583px;stroke-linecap:butt;stroke-linejoin:miter;stroke-opacity:1"
       d="m 146.28246,81.858336 24.08008,30.963284 -15.23377,10.97983 -16.19363,-5.46516 -0.21885,-25.42915 z"
       id="path3637-4" />
    <path
       transform="matrix(0.87823594,-0.03546667,0.03689932,0.85545142,8.2298827,19.629838)"
       inkscape:transform-center-y="-2.3053663"
       inkscape:transform-center-x="0.075901253"
       d="m 78.074967,114.30307 19.143247,-2.1519 9.079916,-16.989695 7.96217,17.541335 18.964,3.38541 -14.22235,12.99304 2.64048,19.08199 -16.75207,-9.51119 -17.332095,8.40791 3.869012,-18.87128 z"
       inkscape:randomized="0"
       inkscape:rounded="0"
       inkscape:flatsided="false"
       sodipodi:arg2="-2.1667567"
       sodipodi:arg1="-2.7950752"
       sodipodi:r2="14.504454"
       sodipodi:r1="29.008907"
       sodipodi:cy="124.1552"
       sodipodi:cx="105.35962"
       sodipodi:sides="5"
       id="path3658"
       style="fill:#f5d63d;fill-opacity:1;stroke:none;stroke-width:0.499999;stroke-linecap:round;stroke-linejoin:round;stroke-miterlimit:4;stroke-dasharray:none"
       sodipodi:type="star" />
    <g
       transform="matrix(0.26458333,0,0,0.26458333,37.507053,58.501082)"
       id="g3623">
      <g
         transform="translate(1,1)"
         id="g3564">
	<g
   id="g3562">
		<g
   id="g3560">
			<path
   sodipodi:nodetypes="cccccccccccccccccssssccccccccccccccccsccccccsccccccccccscccccsccccccsccccc"
   d="M 508.84,198.359 418.475,83.35 c 0.2,-15.761 -22.454,-32.348 -81.156,-50.538 l -24.747,-23.04 -0.329,0.329 c -2.126,-2.418 -5.59,-3.756 -9.058,-2.889 l -1.707,0.853 c -30.72,10.24 -63.147,10.24 -93.013,0 l -1.707,-0.853 c -4.586,-1.147 -9.167,1.56 -10.649,5.529 l -20.925,20.925 c -53,16.422 -75.961,35.539 -80.31,49.349 L 1.106,198.359 c -3.413,3.413 -2.56,9.387 1.707,11.947 l 59.733,42.667 c 2.56,1.707 5.973,1.707 8.533,0.853 l 48.64,-17.71 v 228.35 c 0,5.12 3.413,8.533 8.533,8.533 h 256 c 5.12,0 8.533,-3.413 8.533,-8.533 V 237.469 l 46.08,16.357 c 2.56,1.707 5.973,0.853 8.533,-0.853 l 59.733,-42.667 c 4.269,-2.561 5.122,-8.534 1.709,-11.947 z M 291.154,29.416 264.786,87.426 c -3.413,7.68 -14.507,7.68 -17.92,0 L 220.498,29.417 c 22.987,5.095 46.821,5.094 70.656,-0.001 z M 118.866,217.452 68.52,235.906 20.733,201.773 104.262,99.23 c 4.221,4.267 7.953,8.964 11.191,20.622 1.707,6.827 2.56,14.507 3.413,23.04 0,2.56 0.853,5.12 0.853,7.68 v 1.707 0.853 64.32 z m 17.067,237.627 v -302.8 -3.413 c 0,-2.56 0,-5.12 -0.853,-8.533 -0.853,-8.533 -2.56,-17.067 -4.267,-24.747 -3.997,-15.99 -9.555,-24.338 -17.892,-31.015 l 3.385,-3.385 c 11.093,-8.533 31.573,-21.92 64.853,-32.16 1.707,0 2.56,-0.853 3.413,-2.56 l 16.747,-16.747 29.333,64.533 c 9.387,20.48 39.253,20.48 48.64,0 l 29.333,-64.533 16.747,16.747 c 0.853,0.853 2.56,1.707 3.413,2.56 33.28,10.24 53.76,19.627 64.853,28.16 1.707,0.853 2.56,2.56 3.413,3.413 -8.533,6.827 -13.653,18.773 -17.92,34.987 -1.707,7.68 -3.413,16.213 -4.267,24.747 0,2.56 -0.853,5.973 -0.853,8.533 v 3.413 l 0.853,302.8 z M 442.28,235.052 392.787,217.886 v -65.607 -2.56 c 0,-2.56 0,-5.12 0.853,-7.68 0.853,-7.68 1.707,-15.36 3.413,-23.04 2.419,-10.884 6.125,-19.177 10.203,-23.705 l 82.81,105.625 z"
   id="path3556" />

			<path
   d="m 350.973,209.452 -63.147,-7.68 -23.893,-51.2 c -3.413,-6.827 -12.8,-6.827 -15.36,0 l -23.893,51.2 -63.147,7.68 c -7.68,0.853 -10.24,10.24 -4.267,15.36 l 47.787,39.253 -6.827,58.027 c -0.853,7.68 7.68,11.947 13.653,7.68 l 44.373,-30.72 44.373,30.72 c 5.973,4.267 14.507,-0.853 13.653,-7.68 l -6.827,-58.027 47.787,-39.253 c 5.975,-5.12 3.415,-14.507 -4.265,-15.36 z m -58.027,44.373 c -2.56,1.707 -3.413,5.12 -3.413,7.68 l 5.12,43.52 -34.133,-23.893 c -2.56,-1.707 -6.827,-1.707 -9.387,0 L 217,305.025 l 4.267,-43.52 c 0,-2.56 -0.853,-5.973 -3.413,-7.68 l -35.84,-29.013 48.64,-5.973 c 2.56,0 5.12,-2.56 6.827,-5.12 l 17.92,-38.4 17.92,38.4 c 0.853,2.56 3.413,4.267 6.827,5.12 l 48.64,5.973 z"
   id="path3558" />

		</g>

	</g>

</g>
      <g
         id="g3566">
</g>
      <g
         id="g3568">
</g>
      <g
         id="g3570">
</g>
      <g
         id="g3572">
</g>
      <g
         id="g3574">
</g>
      <g
         id="g3576">
</g>
      <g
         id="g3578">
</g>
      <g
         id="g3580">
</g>
      <g
         id="g3582">
</g>
      <g
         id="g3584">
</g>
      <g
         id="g3586">
</g>
      <g
         id="g3588">
</g>
      <g
         id="g3590">
</g>
      <g
         id="g3592">
</g>
      <g
         id="g3594">
</g>
    </g>
  </g>
</svg>
